<svg width="64" height="41" viewBox="0 0 64 41" fill="none" xmlns="http://www.w3.org/2000/svg">
<path d="M13.416 40.504C11.288 40.504 9.16 40.4293 7.032 40.28C4.94133 40.168 2.75733 39.8693 0.48 39.384V1.752C2.272 1.416 4.232 1.17333 6.36 1.024C8.488 0.837331 10.4667 0.743998 12.296 0.743998C14.76 0.743998 17.0187 0.930665 19.072 1.304C21.1627 1.64 22.9547 2.23733 24.448 3.096C25.9413 3.95466 27.0987 5.09333 27.92 6.512C28.7787 7.89333 29.208 9.61066 29.208 11.664C29.208 14.7627 27.7147 17.208 24.728 19C27.192 19.9333 28.872 21.2027 29.768 22.808C30.664 24.4133 31.112 26.224 31.112 28.24C31.112 32.3093 29.6187 35.3707 26.632 37.424C23.6827 39.4773 19.2773 40.504 13.416 40.504ZM8.992 23.088V33.112C9.62667 33.1867 10.3173 33.2427 11.064 33.28C11.8107 33.3173 12.632 33.336 13.528 33.336C16.1413 33.336 18.2507 32.9627 19.856 32.216C21.4613 31.4693 22.264 30.088 22.264 28.072C22.264 26.28 21.592 25.0107 20.248 24.264C18.904 23.48 16.9813 23.088 14.48 23.088H8.992ZM8.992 16.424H13.248C15.936 16.424 17.8587 16.088 19.016 15.416C20.1733 14.7067 20.752 13.5867 20.752 12.056C20.752 10.488 20.1547 9.38667 18.96 8.752C17.7653 8.11733 16.0107 7.8 13.696 7.8C12.9493 7.8 12.1467 7.81866 11.288 7.856C10.4293 7.856 9.664 7.89333 8.992 7.968V16.424ZM48.689 33.336C49.921 33.336 50.929 33.2427 51.713 33.056C52.5343 32.832 53.1877 32.552 53.673 32.216C54.1583 31.8427 54.4943 31.4133 54.681 30.928C54.8677 30.4427 54.961 29.9013 54.961 29.304C54.961 28.0347 54.3637 26.9893 53.169 26.168C51.9743 25.3093 49.921 24.3947 47.009 23.424C45.7397 22.976 44.4703 22.472 43.201 21.912C41.9317 21.3147 40.793 20.5867 39.785 19.728C38.777 18.832 37.9557 17.768 37.321 16.536C36.6863 15.2667 36.369 13.736 36.369 11.944C36.369 10.152 36.705 8.54667 37.377 7.128C38.049 5.672 39.001 4.44 40.233 3.432C41.465 2.424 42.9583 1.65867 44.713 1.136C46.4677 0.575998 48.4463 0.295997 50.649 0.295997C53.2623 0.295997 55.521 0.575998 57.425 1.136C59.329 1.696 60.897 2.312 62.129 2.984L59.609 9.872C58.5263 9.312 57.313 8.82667 55.969 8.416C54.6623 7.968 53.0757 7.744 51.209 7.744C49.1183 7.744 47.6063 8.04267 46.673 8.64C45.777 9.2 45.329 10.0773 45.329 11.272C45.329 11.9813 45.497 12.5787 45.833 13.064C46.169 13.5493 46.6357 13.9973 47.233 14.408C47.8677 14.7813 48.577 15.136 49.361 15.472C50.1823 15.7707 51.0783 16.088 52.049 16.424C54.065 17.1707 55.8197 17.9173 57.313 18.664C58.8063 19.3733 60.0383 20.2133 61.009 21.184C62.017 22.1547 62.7637 23.2933 63.249 24.6C63.7343 25.9067 63.977 27.4933 63.977 29.36C63.977 32.9813 62.7077 35.8 60.169 37.816C57.6303 39.7947 53.8037 40.784 48.689 40.784C46.9717 40.784 45.4223 40.672 44.041 40.448C42.6597 40.2613 41.4277 40.0187 40.345 39.72C39.2997 39.4213 38.385 39.104 37.601 38.768C36.8543 38.432 36.2197 38.1147 35.697 37.816L38.161 30.872C39.3183 31.5067 40.737 32.0853 42.417 32.608C44.1343 33.0933 46.225 33.336 48.689 33.336Z" fill="#23C7A8"/>
</svg>
