<svg width="454" height="321" viewBox="0 0 454 321" fill="none" xmlns="http://www.w3.org/2000/svg">
<path d="M76.4005 204.199C62.7205 217.589 60.4005 238.309 63.3005 256.459C63.3805 256.869 64.0205 256.759 64.0205 256.369C64.0205 252.239 63.8905 248.149 63.9005 244.069C63.9805 243.879 64.0405 243.699 64.1205 243.519C67.6905 240.919 71.0005 237.999 73.0005 233.999C75.2905 229.499 76.1905 224.439 77.9305 219.739C78.1005 219.289 77.6205 219.419 77.3005 219.659C68.9805 225.789 66.3005 232.399 63.9405 241.219C63.9876 236.604 64.4731 232.003 65.3905 227.479C67.1905 219.109 70.7405 210.799 76.7605 204.589C76.8122 204.542 76.8429 204.475 76.8457 204.405C76.8485 204.335 76.8232 204.266 76.7755 204.214C76.7278 204.163 76.6614 204.132 76.5911 204.129C76.5208 204.126 76.4522 204.152 76.4005 204.199Z" fill="#A6A6A6"/>
<path d="M79 205.76C81.35 205.84 82.83 209.6 84.66 210.7C84.8527 210.856 85.0761 210.97 85.3158 211.035C85.5555 211.099 85.8061 211.113 86.0513 211.074C86.2965 211.035 86.5308 210.946 86.7391 210.81C86.9473 210.675 87.1248 210.498 87.26 210.29C89.08 207.75 86.58 204.62 84.26 202.87C85.94 203.56 87.33 204.77 89.14 205.12C89.3713 205.193 89.6155 205.217 89.8566 205.189C90.0976 205.16 90.3299 205.081 90.538 204.956C90.7461 204.832 90.9253 204.664 91.0635 204.464C91.2018 204.265 91.296 204.038 91.34 203.8C92.13 200.34 87.8 198.8 84.82 198.73C86.26 197.73 90.4 195 88.2 193.66C86 192.32 81.12 196.21 79.54 197.49C77.21 199.38 74.44 202.2 74.33 205.15C74.15 208.6 77.16 206.48 79 205.76Z" fill="#DBDBDB"/>
<path d="M78.2898 206.34C81.2898 204.97 87.0798 206.94 87.5698 205.8C88.5698 203.48 83.9498 201.89 81.4498 201.58C83.7498 200.96 88.1498 199.97 88.0198 197.76C87.8498 195.05 81.2698 197.38 77.9298 199.93C73.7398 203.15 73.7598 206.26 74.4598 206.88C75.4098 207.73 77.7898 206.56 78.2898 206.34Z" fill="#EBEBEB"/>
<path d="M45.24 202.87C59.42 215.73 62.51 236.351 60.31 254.601C60.31 255.011 59.61 254.931 59.6 254.541C59.44 250.411 59.41 246.31 59.24 242.24L59.01 241.69C55.35 239.24 51.95 236.43 49.77 232.49C47.31 228.09 46.22 223.06 44.3 218.43C44.12 217.99 44.6 218.101 44.92 218.321C53.47 224.141 56.38 230.64 59.1 239.37C58.8639 234.758 58.1943 230.178 57.1 225.69C54.98 217.39 51.1 209.23 44.86 203.25C44.66 203 45 202.64 45.24 202.87Z" fill="#A6A6A6"/>
<path d="M42.7303 204.529C40.3803 204.699 39.0503 208.529 37.2603 209.679C37.0745 209.844 36.8559 209.967 36.6191 210.041C36.3822 210.116 36.1323 210.139 35.8858 210.109C35.6393 210.08 35.4018 209.999 35.1889 209.872C34.9759 209.744 34.7924 209.573 34.6503 209.369C32.7403 206.899 35.1103 203.679 37.3903 201.839C35.7403 202.599 34.3903 203.839 32.6003 204.269C32.3696 204.353 32.1234 204.386 31.8788 204.366C31.6341 204.346 31.3966 204.273 31.1828 204.152C30.969 204.032 30.7839 203.866 30.6402 203.667C30.4965 203.468 30.3976 203.24 30.3503 202.999C29.4203 199.569 33.7003 197.869 36.6703 197.679C35.1903 196.739 30.9503 194.169 33.1003 192.749C35.2503 191.329 40.2703 195.029 41.9003 196.249C44.3003 198.049 47.1803 200.759 47.3903 203.709C47.6603 207.189 44.5703 205.179 42.7303 204.529Z" fill="#DBDBDB"/>
<path d="M43.4299 205.08C40.3799 203.83 34.6699 206.02 34.1399 204.9C33.0599 202.62 37.6099 200.9 40.1399 200.45C37.8199 199.92 33.3899 199.09 33.4399 196.88C33.4999 194.17 40.1699 196.24 43.5999 198.67C47.9099 201.73 47.9999 204.83 47.3299 205.48C46.3699 206.37 43.9399 205.29 43.4299 205.08Z" fill="#EBEBEB"/>
<path d="M59.7405 236.84C60.7023 243.721 62.1764 250.519 64.1505 257.18C64.1792 257.311 64.258 257.425 64.3698 257.498C64.4816 257.571 64.6176 257.597 64.7485 257.571C64.8795 257.544 64.9949 257.468 65.0701 257.358C65.1452 257.247 65.1741 257.112 65.1505 256.98C64.2205 250.72 62.5205 244.56 61.5905 238.3C60.5685 231.958 60.2032 225.527 60.5005 219.11C61.0905 208.55 63.9605 197.31 70.8505 189.05C71.0105 188.85 70.6805 188.58 70.5305 188.76C56.7305 204.85 58.9305 224.57 58.9405 226.34C56.9405 219.68 54.9405 212.04 47.5805 205.26C47.2605 204.97 47.0105 205.11 47.0705 205.61C48.3805 218 51.8105 224.41 59.0005 231C59.1805 233 59.4305 234.92 59.7405 236.84Z" fill="#A6A6A6"/>
<path d="M71.0006 190.9C73.4806 189.8 76.9106 192.96 79.3606 193.17C79.6392 193.242 79.9302 193.253 80.2136 193.202C80.4969 193.151 80.766 193.04 81.0024 192.876C81.2388 192.712 81.4369 192.498 81.5833 192.251C81.7297 192.003 81.8209 191.726 81.8506 191.44C82.4606 187.89 78.3006 185.9 74.9806 185.27C77.0706 185.14 79.1206 185.69 81.1706 185.14C81.446 185.096 81.7093 184.995 81.9434 184.843C82.1775 184.691 82.3772 184.492 82.5298 184.259C82.6823 184.025 82.7844 183.762 82.8293 183.487C82.8742 183.211 82.861 182.93 82.7906 182.66C81.8806 178.66 76.6006 179.26 73.4806 180.66C74.4806 178.89 77.3906 173.98 74.4806 173.66C71.5706 173.34 68.4206 179.87 67.4306 182C65.9606 185.13 64.5006 189.46 65.8806 192.57C67.4006 196.28 69.4506 192.56 71.0006 190.9Z" fill="#DBDBDB"/>
<path d="M70.55 191.84C72.99 188.91 79.98 188.04 79.91 186.61C79.78 183.71 74.19 184.38 71.45 185.32C73.51 183.52 77.58 180.27 76.33 178.04C74.79 175.32 69.13 181.04 66.96 185.38C64.23 190.83 65.82 194.04 66.85 194.33C68.27 194.74 70.15 192.33 70.55 191.84Z" fill="#EBEBEB"/>
<path d="M50.6601 240.56L44.5801 287.06H81.5801C80.8201 282.94 73.9301 240.51 73.9301 240.51L50.6601 240.56Z" fill="#DBDBDB"/>
<path d="M411.8 104.629H438.28V93.4389H411.8V104.629Z" fill="#EBEBEB"/>
<path d="M426.57 90.5195H453.05V79.3295H426.57V90.5195Z" fill="#EBEBEB"/>
<path d="M397.02 90.5195H423.5V79.3295H397.02V90.5195Z" fill="#EBEBEB"/>
<path d="M15.7202 248.949H42.2002V237.759H15.7202V248.949Z" fill="#EBEBEB"/>
<path d="M0.950665 234.84H27.4307V223.65H0.950665V234.84Z" fill="#EBEBEB"/>
<path d="M426.57 248.939H453.05V237.749H426.57V248.939Z" fill="#EBEBEB"/>
<path d="M115.911 0.259766H89.4307V11.4498H115.911V0.259766Z" fill="#EBEBEB"/>
<path d="M101.13 14.3691H74.6504V25.5591H101.13V14.3691Z" fill="#EBEBEB"/>
<path d="M34.9502 287.02L82.9602 286.78L130.97 286.69L227 286.52L323.02 286.69L371.04 286.78L419.05 287.02L371.04 287.27L323.02 287.35L227 287.52L130.97 287.35L82.9602 287.26L34.9502 287.02Z" fill="#263238"/>
<path d="M150.4 144.88C150.144 144.586 149.871 144.309 149.58 144.05C149.318 143.762 149.041 143.488 148.75 143.23C148.492 142.938 148.218 142.661 147.93 142.4C147.671 142.109 147.394 141.835 147.1 141.58C146.84 141.29 146.56 141.01 146.28 140.75C146.027 140.457 145.753 140.183 145.46 139.93C145.198 139.638 144.921 139.361 144.63 139.1C144.377 138.807 144.103 138.533 143.81 138.28C143.548 137.992 143.271 137.718 142.98 137.46C142.133 136.527 141.145 135.733 140.05 135.11V52.4698C140.05 52.0298 139.84 51.8098 139.84 51.3698C139.894 50.921 139.818 50.4662 139.62 50.0598C139.62 49.8398 139.41 49.3998 139.41 49.1798C139.29 48.7302 139.139 48.2892 138.96 47.8598C138.729 47.6182 138.578 47.3106 138.53 46.9798C138.278 46.5848 137.983 46.2191 137.65 45.8898C137.42 45.6698 137.21 45.2398 136.99 45.0098L136.11 44.1298C136.11 43.9998 135.94 43.8598 135.75 43.7798L135.32 43.3398H135.27C135.27 43.1998 135.11 43.0698 134.92 42.9798L134.48 42.5498C134.48 42.4198 134.31 42.2798 134.12 42.1898L133.69 41.7598C133.69 41.6198 133.52 41.4898 133.33 41.3998L132.9 40.9598C132.9 40.8298 132.73 40.6898 132.54 40.5998L132.1 40.1698V40.1198C132.1 39.9898 131.93 39.8598 131.74 39.7698L131.31 39.3298H131.26C131.26 39.1998 131.1 39.0598 130.91 38.9698L130.47 38.5398V38.4898C130.47 38.3598 130.3 38.2298 130.11 38.1398L129.68 37.6998H129.63C129.63 37.5598 129.47 37.4298 129.28 37.3398L128.84 36.9098C128.84 36.7798 128.67 36.6398 128.48 36.5598L128 36.0798C128 35.8598 127.57 35.6398 127.34 35.6398C127.341 35.6114 127.337 35.583 127.327 35.5563C127.317 35.5297 127.302 35.5053 127.282 35.4848C127.262 35.4642 127.239 35.4478 127.213 35.4367C127.186 35.4255 127.158 35.4197 127.13 35.4198C126.69 35.2098 126.46 34.9798 126.03 34.7598C125.652 34.4854 125.288 34.1917 124.94 33.8798C124.72 33.8798 124.28 33.6698 124.06 33.6698C123.62 33.4498 122.96 33.4498 122.74 33.2198C122.361 33.2506 121.981 33.178 121.64 33.0098H117.92C117.659 33.1774 117.349 33.2514 117.04 33.2198C116.38 33.4498 115.95 33.4498 115.72 33.6698C115.29 33.6698 115.07 33.8798 114.84 34.3298C114.37 34.3407 113.915 34.4903 113.53 34.7598C113.32 34.9798 112.87 35.2098 112.65 35.4198C112.358 35.7402 111.979 35.9694 111.56 36.0798C111.396 36.4113 111.172 36.7096 110.9 36.9598C110.68 37.1798 110.68 37.3898 110.47 37.3898L28.9999 138C27.0734 140.313 26.1118 143.279 26.3148 146.283C26.5177 149.287 27.8697 152.097 30.0899 154.13C30.3469 154.432 30.6279 154.713 30.9299 154.97C31.181 155.271 31.4588 155.549 31.7599 155.8C32.0169 156.102 32.2978 156.383 32.5999 156.64C32.8535 156.942 33.131 157.223 33.4299 157.48C33.6871 157.779 33.968 158.056 34.2699 158.31C34.5235 158.612 34.801 158.893 35.0999 159.15C35.3571 159.449 35.638 159.726 35.9399 159.98C36.1935 160.282 36.471 160.563 36.7699 160.82C37.0271 161.119 37.308 161.396 37.6099 161.65C38.127 162.238 38.7034 162.77 39.3299 163.24C41.3894 165.03 44.0528 165.971 46.7799 165.87H107.5V174.18C107.482 175.871 107.822 177.548 108.497 179.099C109.173 180.65 110.169 182.041 111.42 183.18C111.68 183.46 111.95 183.73 112.22 183.98C112.475 184.265 112.745 184.535 113.03 184.79C113.29 185.07 113.56 185.34 113.84 185.59C114.095 185.875 114.365 186.145 114.65 186.4C114.91 186.68 115.18 186.95 115.46 187.21C115.712 187.497 115.983 187.768 116.27 188.02C116.52 188.3 116.79 188.57 117.07 188.83C117.325 189.115 117.595 189.385 117.88 189.64C118.13 189.91 118.4 190.18 118.68 190.44C120.332 192.225 122.483 193.472 124.853 194.018C127.224 194.564 129.704 194.383 131.97 193.499C134.236 192.615 136.184 191.069 137.559 189.063C138.934 187.056 139.673 184.682 139.68 182.25V165.83H141.88C143.481 165.856 145.071 165.564 146.558 164.97C148.045 164.376 149.399 163.492 150.541 162.37C151.683 161.247 152.59 159.909 153.209 158.432C153.829 156.956 154.149 155.371 154.15 153.77C154.174 152.109 153.853 150.462 153.208 148.931C152.562 147.401 151.606 146.021 150.4 144.88ZM107.48 97.8798V133.32H78.9199L107.48 97.8798Z" fill="#23C7A8"/>
<path opacity="0.1" d="M150.4 144.88C150.144 144.586 149.871 144.309 149.58 144.05C149.318 143.762 149.041 143.488 148.75 143.23C148.492 142.938 148.218 142.661 147.93 142.4C147.671 142.109 147.394 141.835 147.1 141.58C146.84 141.29 146.56 141.01 146.28 140.75C146.027 140.457 145.753 140.183 145.46 139.93C145.198 139.638 144.921 139.361 144.63 139.1C144.377 138.807 144.103 138.533 143.81 138.28C143.548 137.992 143.271 137.718 142.98 137.46C142.133 136.527 141.145 135.733 140.05 135.11V52.4698C140.05 52.0298 139.84 51.8098 139.84 51.3698C139.894 50.921 139.818 50.4662 139.62 50.0598C139.62 49.8398 139.41 49.3998 139.41 49.1798C139.29 48.7302 139.139 48.2892 138.96 47.8598C138.729 47.6182 138.578 47.3106 138.53 46.9798C138.278 46.5848 137.983 46.2191 137.65 45.8898C137.42 45.6698 137.21 45.2398 136.99 45.0098L136.11 44.1298C136.11 43.9998 135.94 43.8598 135.75 43.7798L135.32 43.3398H135.27C135.27 43.1998 135.11 43.0698 134.92 42.9798L134.48 42.5498C134.48 42.4198 134.31 42.2798 134.12 42.1898L133.69 41.7598C133.69 41.6198 133.52 41.4898 133.33 41.3998L132.9 40.9598C132.9 40.8298 132.73 40.6898 132.54 40.5998L132.1 40.1698V40.1198C132.1 39.9898 131.93 39.8598 131.74 39.7698L131.31 39.3298H131.26C131.26 39.1998 131.1 39.0598 130.91 38.9698L130.47 38.5398V38.4898C130.47 38.3598 130.3 38.2298 130.11 38.1398L129.68 37.6998H129.63C129.63 37.5598 129.47 37.4298 129.28 37.3398L128.84 36.9098C128.84 36.7798 128.67 36.6398 128.48 36.5598L128 36.0798C128 35.8598 127.57 35.6398 127.34 35.6398C127.341 35.6114 127.337 35.583 127.327 35.5563C127.317 35.5297 127.302 35.5053 127.282 35.4848C127.262 35.4642 127.239 35.4478 127.213 35.4367C127.186 35.4255 127.158 35.4197 127.13 35.4198C126.69 35.2098 126.46 34.9798 126.03 34.7598C125.652 34.4854 125.288 34.1917 124.94 33.8798C124.72 33.8798 124.28 33.6698 124.06 33.6698C123.62 33.4498 122.96 33.4498 122.74 33.2198C122.361 33.2506 121.981 33.178 121.64 33.0098H117.92C117.659 33.1774 117.349 33.2514 117.04 33.2198C116.38 33.4498 115.95 33.4498 115.72 33.6698C115.29 33.6698 115.07 33.8798 114.84 34.3298C114.37 34.3407 113.915 34.4903 113.53 34.7598C113.32 34.9798 112.87 35.2098 112.65 35.4198C112.358 35.7402 111.979 35.9694 111.56 36.0798C111.396 36.4113 111.172 36.7096 110.9 36.9598C110.68 37.1798 110.68 37.3898 110.47 37.3898L28.9999 138C27.0734 140.313 26.1118 143.279 26.3148 146.283C26.5177 149.287 27.8697 152.097 30.0899 154.13C30.3469 154.432 30.6279 154.713 30.9299 154.97C31.181 155.271 31.4588 155.549 31.7599 155.8C32.0169 156.102 32.2978 156.383 32.5999 156.64C32.8535 156.942 33.131 157.223 33.4299 157.48C33.6871 157.779 33.968 158.056 34.2699 158.31C34.5235 158.612 34.801 158.893 35.0999 159.15C35.3571 159.449 35.638 159.726 35.9399 159.98C36.1935 160.282 36.471 160.563 36.7699 160.82C37.0271 161.119 37.308 161.396 37.6099 161.65C38.127 162.238 38.7034 162.77 39.3299 163.24C41.3894 165.03 44.0528 165.971 46.7799 165.87H107.5V174.18C107.482 175.871 107.822 177.548 108.497 179.099C109.173 180.65 110.169 182.041 111.42 183.18C111.68 183.46 111.95 183.73 112.22 183.98C112.475 184.265 112.745 184.535 113.03 184.79C113.29 185.07 113.56 185.34 113.84 185.59C114.095 185.875 114.365 186.145 114.65 186.4C114.91 186.68 115.18 186.95 115.46 187.21C115.712 187.497 115.983 187.768 116.27 188.02C116.52 188.3 116.79 188.57 117.07 188.83C117.325 189.115 117.595 189.385 117.88 189.64C118.13 189.91 118.4 190.18 118.68 190.44C120.332 192.225 122.483 193.472 124.853 194.018C127.224 194.564 129.704 194.383 131.97 193.499C134.236 192.615 136.184 191.069 137.559 189.063C138.934 187.056 139.673 184.682 139.68 182.25V165.83H141.88C143.481 165.856 145.071 165.564 146.558 164.97C148.045 164.376 149.399 163.492 150.541 162.37C151.683 161.247 152.59 159.909 153.209 158.432C153.829 156.956 154.149 155.371 154.15 153.77C154.174 152.109 153.853 150.462 153.208 148.931C152.562 147.401 151.606 146.021 150.4 144.88ZM107.48 97.8798V133.32H78.9199L107.48 97.8798Z" fill="black"/>
<path d="M146.06 145.409C146.059 147.011 145.738 148.597 145.118 150.074C144.498 151.551 143.59 152.89 142.447 154.012C141.304 155.135 139.949 156.019 138.461 156.612C136.973 157.206 135.381 157.497 133.78 157.469H131.59V174.139C131.59 177.338 130.319 180.405 128.057 182.667C125.796 184.928 122.728 186.199 119.53 186.199C116.331 186.199 113.264 184.928 111.002 182.667C108.74 180.405 107.47 177.338 107.47 174.139V157.469H38.3996C35.6889 157.561 33.0443 156.621 30.9996 154.839C29.7328 153.887 28.6721 152.687 27.8816 151.314C27.0911 149.94 26.5871 148.42 26.4002 146.846C26.2133 145.273 26.3473 143.677 26.794 142.157C27.2408 140.636 27.9911 139.222 28.9996 137.999L110.1 37.089C110.32 37.089 110.32 36.879 110.54 36.659C110.812 36.4088 111.036 36.1105 111.2 35.779C111.62 35.6653 112.001 35.4367 112.3 35.119C112.51 34.899 112.95 34.679 113.17 34.459C113.555 34.183 114.015 34.0297 114.49 34.019C114.71 33.589 114.93 33.369 115.37 33.369C115.58 33.149 116.02 33.149 116.68 32.929C116.99 32.9619 117.301 32.884 117.56 32.709H121.29C121.623 32.8877 122.003 32.9642 122.38 32.929C122.6 33.149 123.26 33.149 123.7 33.369C123.92 33.369 124.36 33.589 124.58 33.589C125.01 34.019 125.45 34.239 125.67 34.459C126.11 34.679 126.33 34.899 126.77 35.119C126.828 35.119 126.884 35.1422 126.925 35.1834C126.966 35.2247 126.99 35.2806 126.99 35.339C127.21 35.339 127.65 35.559 127.65 35.779L128.52 36.659C128.74 36.879 128.96 37.309 129.18 37.529C129.515 37.8598 129.81 38.229 130.06 38.629C130.115 38.9599 130.268 39.2665 130.5 39.509C130.68 39.9325 130.824 40.3708 130.93 40.819C130.93 41.039 131.15 41.479 131.15 41.699C131.348 42.1089 131.424 42.567 131.37 43.019C131.37 43.449 131.59 43.669 131.59 44.109V133.349H133.78C137.003 133.333 140.103 134.591 142.403 136.85C144.703 139.109 146.017 142.185 146.06 145.409ZM107.47 79.189L63.8396 133.349H107.47V79.189Z" fill="#23C7A8"/>
<path d="M274.33 65.398C271.854 61.6311 268.978 58.144 265.75 54.998C265.631 54.8672 265.504 54.7436 265.37 54.6281L265.26 54.5181C265.16 54.4081 265.06 54.298 264.95 54.198C264.67 53.898 264.37 53.618 264.08 53.328L264 53.258L263.7 52.9581C263.666 52.9189 263.629 52.8822 263.59 52.8481C263.49 52.7381 263.39 52.628 263.28 52.528C263 52.228 262.7 51.9481 262.41 51.6581L262.33 51.588L262.03 51.288L261.92 51.178C261.82 51.068 261.72 50.958 261.61 50.858C261.33 50.558 261.03 50.2781 260.74 49.9881L260.66 49.918L260.36 49.618C260.36 49.618 260.29 49.538 260.25 49.508C260.151 49.394 260.044 49.2871 259.93 49.188C259.66 48.878 259.36 48.6081 259.07 48.3181L258.99 48.248C258.897 48.1407 258.797 48.0404 258.69 47.948C258.69 47.948 258.62 47.868 258.58 47.838C249.77 38.758 238.29 32.748 225.41 32.748C208.08 32.748 193.84 43.058 184.62 57.078C174.97 71.078 169.94 89.3281 169.72 109.488C169.94 129.488 174.97 147.858 184.62 161.898C187.091 165.609 189.936 169.057 193.11 172.188L193.55 172.618V172.668L194.33 173.448C194.46 173.598 194.6 173.728 194.73 173.858L195.17 174.288L195.22 174.338L196 175.118L196.4 175.538L196.84 175.958C196.861 175.969 196.878 175.987 196.89 176.008L197.67 176.788L198.07 177.208L198.51 177.628C198.522 177.634 198.532 177.643 198.541 177.653C198.549 177.663 198.556 177.675 198.56 177.688L199.34 178.468L199.75 178.878L200.18 179.298L200.24 179.358L201.02 180.138C209.68 188.788 220.86 194.598 233.71 194.598C250.59 194.598 265.06 184.068 274.28 170.248C283.7 156.248 288.97 137.798 288.97 117.848C289 97.6381 283.75 79.438 274.33 65.398ZM245.8 148.268C239.44 157.688 232.2 161.858 225.41 161.858C221.232 161.757 217.188 160.359 213.84 157.858C213.53 157.458 213.23 157.038 212.93 156.598C206.79 147.388 202.4 133.358 202.4 117.788C202.4 101.998 206.79 88.188 212.93 78.788C219.52 69.578 226.93 65.1981 233.76 65.4081C237.719 65.39 241.577 66.6528 244.76 69.008C245.11 69.478 245.45 69.938 245.76 70.428C251.9 79.858 256.28 93.668 256.28 109.428C256.32 124.998 251.94 139.048 245.8 148.268Z" fill="#23C7A8"/>
<path opacity="0.1" d="M274.33 65.398C271.854 61.6311 268.978 58.144 265.75 54.998C265.631 54.8672 265.504 54.7436 265.37 54.6281L265.26 54.5181C265.16 54.4081 265.06 54.298 264.95 54.198C264.67 53.898 264.37 53.618 264.08 53.328L264 53.258L263.7 52.9581C263.666 52.9189 263.629 52.8822 263.59 52.8481C263.49 52.7381 263.39 52.628 263.28 52.528C263 52.228 262.7 51.9481 262.41 51.6581L262.33 51.588L262.03 51.288L261.92 51.178C261.82 51.068 261.72 50.958 261.61 50.858C261.33 50.558 261.03 50.2781 260.74 49.9881L260.66 49.918L260.36 49.618C260.36 49.618 260.29 49.538 260.25 49.508C260.151 49.394 260.044 49.2871 259.93 49.188C259.66 48.878 259.36 48.6081 259.07 48.3181L258.99 48.248C258.897 48.1407 258.797 48.0404 258.69 47.948C258.69 47.948 258.62 47.868 258.58 47.838C249.77 38.758 238.29 32.748 225.41 32.748C208.08 32.748 193.84 43.058 184.62 57.078C174.97 71.078 169.94 89.3281 169.72 109.488C169.94 129.488 174.97 147.858 184.62 161.898C187.091 165.609 189.936 169.057 193.11 172.188L193.55 172.618V172.668L194.33 173.448C194.46 173.598 194.6 173.728 194.73 173.858L195.17 174.288L195.22 174.338L196 175.118L196.4 175.538L196.84 175.958C196.861 175.969 196.878 175.987 196.89 176.008L197.67 176.788L198.07 177.208L198.51 177.628C198.522 177.634 198.532 177.643 198.541 177.653C198.549 177.663 198.556 177.675 198.56 177.688L199.34 178.468L199.75 178.878L200.18 179.298L200.24 179.358L201.02 180.138C209.68 188.788 220.86 194.598 233.71 194.598C250.59 194.598 265.06 184.068 274.28 170.248C283.7 156.248 288.97 137.798 288.97 117.848C289 97.6381 283.75 79.438 274.33 65.398ZM245.8 148.268C239.44 157.688 232.2 161.858 225.41 161.858C221.232 161.757 217.188 160.359 213.84 157.858C213.53 157.458 213.23 157.038 212.93 156.598C206.79 147.388 202.4 133.358 202.4 117.788C202.4 101.998 206.79 88.188 212.93 78.788C219.52 69.578 226.93 65.1981 233.76 65.4081C237.719 65.39 241.577 66.6528 244.76 69.008C245.11 69.478 245.45 69.938 245.76 70.428C251.9 79.858 256.28 93.668 256.28 109.428C256.32 124.998 251.94 139.048 245.8 148.268Z" fill="black"/>
<path d="M169.71 109.449C169.93 89.279 174.98 71.079 184.62 57.049C193.83 43.049 208.08 32.709 225.41 32.709C242.29 32.709 256.76 43.019 265.97 57.049C275.4 71.049 280.66 89.279 280.66 109.449C280.66 129.449 275.4 147.829 265.97 161.859C256.76 175.669 242.29 186.199 225.41 186.199C208.08 186.199 193.83 175.669 184.62 161.859C175 147.829 169.93 129.409 169.71 109.449ZM256.32 109.449C256.32 93.669 251.94 79.849 245.8 70.449C239.44 61.239 232.21 56.859 225.41 57.079C218.61 56.859 211.15 61.239 204.58 70.449C198.44 79.879 194.05 93.699 194.05 109.449C194.05 125.019 198.44 139.059 204.58 148.259C211.15 157.689 218.58 161.859 225.41 161.859C232.24 161.859 239.41 157.689 245.8 148.259C251.94 139.059 256.32 124.999 256.32 109.449Z" fill="#23C7A8"/>
<path d="M423.71 144.88C423.45 144.59 423.17 144.31 422.89 144.05C422.62 143.76 422.34 143.49 422.06 143.23C421.79 142.94 421.52 142.66 421.24 142.4C420.97 142.11 420.69 141.83 420.41 141.58C420.14 141.29 419.87 141.01 419.59 140.75C419.32 140.46 419.04 140.18 418.76 139.93C418.49 139.64 418.21 139.36 417.94 139.1C417.682 138.812 417.408 138.538 417.12 138.28C416.85 137.99 416.57 137.72 416.29 137.46C415.443 136.524 414.45 135.73 413.35 135.11V52.4698C413.35 52.0298 413.14 51.8098 413.14 51.3698C413.194 50.921 413.118 50.4662 412.92 50.0598C412.92 49.8398 412.71 49.3998 412.71 49.1798C412.59 48.7302 412.44 48.2892 412.26 47.8598C412.033 47.6153 411.883 47.3091 411.83 46.9798C411.582 46.5824 411.286 46.2164 410.95 45.8898C410.72 45.6698 410.51 45.2398 410.29 45.0098L409.41 44.1298C409.41 43.9998 409.24 43.8598 409.05 43.7798L408.62 43.3398H408.57C408.57 43.1998 408.41 43.0698 408.22 42.9798L407.78 42.5498C407.78 42.4198 407.61 42.2798 407.42 42.1898L406.99 41.7598C406.99 41.6198 406.82 41.4898 406.63 41.3998L406.2 40.9598C406.2 40.8298 406.03 40.6898 405.84 40.5998L405.4 40.1698V40.1198C405.4 39.9898 405.23 39.8598 405.04 39.7698L404.61 39.3298H404.56C404.56 39.1998 404.4 39.0598 404.21 38.9698L403.77 38.5398V38.4898C403.77 38.3598 403.6 38.2298 403.41 38.1398L402.98 37.6998H402.93C402.93 37.5598 402.77 37.4298 402.58 37.3398L402.14 36.9098C402.14 36.7798 401.97 36.6398 401.78 36.5598L401.3 36.0798C401.3 35.8598 400.87 35.6398 400.64 35.6398C400.64 35.6109 400.634 35.5823 400.623 35.5556C400.612 35.5289 400.596 35.5046 400.576 35.4842C400.555 35.4638 400.531 35.4476 400.504 35.4365C400.478 35.4255 400.449 35.4198 400.42 35.4198C399.99 35.2098 399.76 34.9798 399.33 34.7598C398.952 34.4854 398.588 34.1917 398.24 33.8798C398.02 33.8798 397.58 33.6698 397.36 33.6698C396.92 33.4498 396.27 33.4498 396.04 33.2198C395.661 33.2517 395.281 33.179 394.94 33.0098H391.22C390.959 33.1774 390.649 33.2514 390.34 33.2198C389.68 33.4498 389.25 33.4498 389.02 33.6698C388.59 33.6698 388.37 33.8798 388.14 34.3298C387.671 34.3419 387.215 34.4914 386.83 34.7598C386.62 34.9798 386.17 35.2098 385.96 35.4198C385.662 35.7375 385.281 35.966 384.86 36.0798C384.693 36.4092 384.47 36.707 384.2 36.9598C383.98 37.1798 383.98 37.3898 383.77 37.3898L302.28 138C300.354 140.313 299.392 143.279 299.595 146.283C299.798 149.287 301.15 152.097 303.37 154.13C303.627 154.432 303.908 154.713 304.21 154.97C304.461 155.271 304.739 155.549 305.04 155.8C305.297 156.102 305.578 156.383 305.88 156.64C306.719 157.471 307.552 158.308 308.38 159.15C308.943 159.7 309.5 160.256 310.05 160.82C310.307 161.119 310.588 161.396 310.89 161.65C311.407 162.238 311.984 162.77 312.61 163.24C314.67 165.03 317.333 165.971 320.06 165.87H380.78V174.18C380.762 175.871 381.102 177.548 381.778 179.099C382.453 180.65 383.449 182.041 384.7 183.18C384.96 183.47 385.24 183.74 385.51 183.99C385.76 184.27 386.03 184.53 386.31 184.79C386.568 185.075 386.842 185.345 387.13 185.6C387.39 185.88 387.65 186.14 387.93 186.4C388.19 186.69 388.47 186.96 388.75 187.22C389.01 187.5 389.27 187.77 389.55 188.02C389.81 188.31 390.09 188.58 390.37 188.84C390.63 189.12 390.89 189.39 391.17 189.64C391.425 189.928 391.695 190.202 391.98 190.46C393.633 192.246 395.785 193.493 398.156 194.039C400.528 194.584 403.008 194.402 405.275 193.517C407.542 192.632 409.489 191.085 410.864 189.077C412.238 187.069 412.976 184.693 412.98 182.26V165.83H415.18C416.782 165.858 418.374 165.566 419.863 164.973C421.352 164.38 422.707 163.496 423.851 162.374C424.995 161.251 425.904 159.913 426.525 158.435C427.147 156.958 427.468 155.372 427.47 153.77C427.493 152.108 427.171 150.46 426.523 148.93C425.876 147.4 424.918 146.021 423.71 144.88ZM380.78 97.8798V133.32H352.22L380.78 97.8798Z" fill="#23C7A8"/>
<path opacity="0.1" d="M423.71 144.88C423.45 144.59 423.17 144.31 422.89 144.05C422.62 143.76 422.34 143.49 422.06 143.23C421.79 142.94 421.52 142.66 421.24 142.4C420.97 142.11 420.69 141.83 420.41 141.58C420.14 141.29 419.87 141.01 419.59 140.75C419.32 140.46 419.04 140.18 418.76 139.93C418.49 139.64 418.21 139.36 417.94 139.1C417.682 138.812 417.408 138.538 417.12 138.28C416.85 137.99 416.57 137.72 416.29 137.46C415.443 136.524 414.45 135.73 413.35 135.11V52.4698C413.35 52.0298 413.14 51.8098 413.14 51.3698C413.194 50.921 413.118 50.4662 412.92 50.0598C412.92 49.8398 412.71 49.3998 412.71 49.1798C412.59 48.7302 412.44 48.2892 412.26 47.8598C412.033 47.6153 411.883 47.3091 411.83 46.9798C411.582 46.5824 411.286 46.2164 410.95 45.8898C410.72 45.6698 410.51 45.2398 410.29 45.0098L409.41 44.1298C409.41 43.9998 409.24 43.8598 409.05 43.7798L408.62 43.3398H408.57C408.57 43.1998 408.41 43.0698 408.22 42.9798L407.78 42.5498C407.78 42.4198 407.61 42.2798 407.42 42.1898L406.99 41.7598C406.99 41.6198 406.82 41.4898 406.63 41.3998L406.2 40.9598C406.2 40.8298 406.03 40.6898 405.84 40.5998L405.4 40.1698V40.1198C405.4 39.9898 405.23 39.8598 405.04 39.7698L404.61 39.3298H404.56C404.56 39.1998 404.4 39.0598 404.21 38.9698L403.77 38.5398V38.4898C403.77 38.3598 403.6 38.2298 403.41 38.1398L402.98 37.6998H402.93C402.93 37.5598 402.77 37.4298 402.58 37.3398L402.14 36.9098C402.14 36.7798 401.97 36.6398 401.78 36.5598L401.3 36.0798C401.3 35.8598 400.87 35.6398 400.64 35.6398C400.64 35.6109 400.634 35.5823 400.623 35.5556C400.612 35.5289 400.596 35.5046 400.576 35.4842C400.555 35.4638 400.531 35.4476 400.504 35.4365C400.478 35.4255 400.449 35.4198 400.42 35.4198C399.99 35.2098 399.76 34.9798 399.33 34.7598C398.952 34.4854 398.588 34.1917 398.24 33.8798C398.02 33.8798 397.58 33.6698 397.36 33.6698C396.92 33.4498 396.27 33.4498 396.04 33.2198C395.661 33.2517 395.281 33.179 394.94 33.0098H391.22C390.959 33.1774 390.649 33.2514 390.34 33.2198C389.68 33.4498 389.25 33.4498 389.02 33.6698C388.59 33.6698 388.37 33.8798 388.14 34.3298C387.671 34.3419 387.215 34.4914 386.83 34.7598C386.62 34.9798 386.17 35.2098 385.96 35.4198C385.662 35.7375 385.281 35.966 384.86 36.0798C384.693 36.4092 384.47 36.707 384.2 36.9598C383.98 37.1798 383.98 37.3898 383.77 37.3898L302.28 138C300.354 140.313 299.392 143.279 299.595 146.283C299.798 149.287 301.15 152.097 303.37 154.13C303.627 154.432 303.908 154.713 304.21 154.97C304.461 155.271 304.739 155.549 305.04 155.8C305.297 156.102 305.578 156.383 305.88 156.64C306.719 157.471 307.552 158.308 308.38 159.15C308.943 159.7 309.5 160.256 310.05 160.82C310.307 161.119 310.588 161.396 310.89 161.65C311.407 162.238 311.984 162.77 312.61 163.24C314.67 165.03 317.333 165.971 320.06 165.87H380.78V174.18C380.762 175.871 381.102 177.548 381.778 179.099C382.453 180.65 383.449 182.041 384.7 183.18C384.96 183.47 385.24 183.74 385.51 183.99C385.76 184.27 386.03 184.53 386.31 184.79C386.568 185.075 386.842 185.345 387.13 185.6C387.39 185.88 387.65 186.14 387.93 186.4C388.19 186.69 388.47 186.96 388.75 187.22C389.01 187.5 389.27 187.77 389.55 188.02C389.81 188.31 390.09 188.58 390.37 188.84C390.63 189.12 390.89 189.39 391.17 189.64C391.425 189.928 391.695 190.202 391.98 190.46C393.633 192.246 395.785 193.493 398.156 194.039C400.528 194.584 403.008 194.402 405.275 193.517C407.542 192.632 409.489 191.085 410.864 189.077C412.238 187.069 412.976 184.693 412.98 182.26V165.83H415.18C416.782 165.858 418.374 165.566 419.863 164.973C421.352 164.38 422.707 163.496 423.851 162.374C424.995 161.251 425.904 159.913 426.525 158.435C427.147 156.958 427.468 155.372 427.47 153.77C427.493 152.108 427.171 150.46 426.523 148.93C425.876 147.4 424.918 146.021 423.71 144.88ZM380.78 97.8798V133.32H352.22L380.78 97.8798Z" fill="black"/>
<path d="M419.359 145.409C419.358 147.011 419.038 148.597 418.418 150.074C417.798 151.551 416.89 152.89 415.747 154.012C414.604 155.135 413.249 156.019 411.761 156.612C410.273 157.206 408.681 157.497 407.079 157.469H404.89V174.139C404.89 177.338 403.619 180.405 401.357 182.667C399.096 184.928 396.028 186.199 392.829 186.199C389.631 186.199 386.563 184.928 384.302 182.667C382.04 180.405 380.769 177.338 380.769 174.139V157.469H311.7C308.972 157.574 306.307 156.633 304.25 154.839C302.977 153.886 301.911 152.685 301.117 151.308C300.322 149.931 299.816 148.407 299.629 146.828C299.442 145.249 299.578 143.649 300.029 142.124C300.479 140.6 301.235 139.183 302.25 137.959L383.399 37.089C383.619 37.089 383.619 36.879 383.84 36.659C384.112 36.4088 384.336 36.1105 384.5 35.779C384.92 35.6653 385.301 35.4367 385.6 35.119C385.82 34.899 386.26 34.679 386.48 34.459C386.861 34.1815 387.318 34.0279 387.79 34.019C388.01 33.589 388.23 33.369 388.66 33.369C388.88 33.149 389.32 33.149 389.98 32.929C390.29 32.9619 390.601 32.884 390.859 32.709H394.59C394.923 32.8877 395.302 32.9642 395.679 32.929C395.899 33.149 396.56 33.149 397 33.369C397.22 33.369 397.66 33.589 397.88 33.589C398.32 34.019 398.75 34.239 398.97 34.459C399.41 34.679 399.63 34.899 400.07 35.119C400.128 35.119 400.184 35.1422 400.225 35.1834C400.266 35.2247 400.29 35.2806 400.29 35.339C400.51 35.339 400.94 35.559 400.94 35.779L401.82 36.659C402.04 36.879 402.26 37.309 402.48 37.529C402.815 37.8598 403.11 38.229 403.359 38.629C403.414 38.9599 403.568 39.2665 403.799 39.509C403.98 39.9337 404.127 40.3717 404.239 40.819C404.239 41.039 404.45 41.479 404.45 41.699C404.648 42.1089 404.724 42.567 404.67 43.019C404.67 43.449 404.89 43.669 404.89 44.109V133.349H407.079C410.303 133.333 413.403 134.591 415.703 136.85C418.003 139.109 419.317 142.185 419.359 145.409ZM380.769 79.189L337.14 133.349H380.769V79.189Z" fill="#23C7A8"/>
<path d="M257.271 157.749C257.236 157.978 257.282 158.212 257.401 158.411C257.519 158.609 257.703 158.761 257.921 158.839C258.971 158.999 260.251 159.169 261.671 159.369C265.901 150.189 270.221 142.959 269.001 145.819C267.137 150.313 265.915 155.046 265.371 159.879C267.021 160.099 270.871 160.569 272.791 160.799C277.211 144.419 282.081 132.379 281.511 136.159C279.191 151.409 279.601 156.389 280.131 161.719C298.061 163.899 321.611 166.479 338.681 167.949C341.471 158.949 344.081 149.109 344.321 149.829C346.191 155.179 346.151 162.739 345.681 168.539C351.121 168.969 355.481 169.199 358.151 169.199C358.151 169.199 360.151 161.579 360.511 159.059C361.582 152.612 361.521 146.026 360.331 139.599C359.101 133.039 356.481 127.139 354.031 121.109C354.024 121.072 354.014 121.035 354.001 120.999C352.376 117.049 351.208 112.925 350.521 108.709C350.514 108.676 350.514 108.642 350.521 108.609C350.064 105.535 349.866 102.427 349.931 99.3194C350.151 87.9394 345.051 77.7094 335.361 74.0094C318.811 57.0994 296.081 64.8594 289.661 79.1594C287.151 85.5694 284.661 93.9394 282.491 100.389C282.497 100.4 282.5 100.412 282.5 100.424C282.5 100.437 282.497 100.449 282.491 100.459C281.672 102.989 280.7 105.467 279.581 107.879C273.631 119.399 262.171 125.339 257.271 157.749Z" fill="#263238"/>
<path d="M339.351 77.3696C345.561 81.4796 349.101 87.0896 349.351 95.4296C349.511 100.29 349.351 105.02 350.721 109.69C352.091 114.51 354.571 118.57 357.141 122.62C361.211 129.06 363.891 135.38 363.881 143.54C363.871 151.7 362.641 161.54 359.351 169.03C359.351 169.08 359.271 169.03 359.291 169.03C362.091 161.38 363.111 150.6 362.541 142.34C361.911 133.26 357.671 127.28 353.411 120.11C349.978 114.418 348.08 107.934 347.901 101.29C347.781 97.1696 348.221 92.9196 347.021 88.9596C345.601 84.2396 342.201 81.0496 338.801 78.1996C338.351 77.7896 338.881 77.0596 339.351 77.3696Z" fill="#263238"/>
<path d="M267.361 119.809C272.541 113.719 277.831 108.589 281.251 100.809C284.361 93.7185 286.451 86.1485 289.601 79.0785C289.601 78.9585 289.811 79.0185 289.761 79.1485C284.761 91.7485 282.841 104.689 274.101 114.959C269.341 120.539 264.631 125.689 261.211 132.539C257.714 139.763 255.526 147.55 254.751 155.539C254.751 155.819 254.381 155.779 254.381 155.539C254.376 142.474 258.971 129.824 267.361 119.809Z" fill="#263238"/>
<path d="M217.001 274.999C217.001 274.999 265.271 287.999 273.251 286.599C281.231 285.199 308.171 248.939 314.151 235.789C320.131 222.639 330.061 157.219 328.151 150.019C326.241 142.819 316.251 142.719 307.821 161.279C299.391 179.839 279.461 220.639 275.911 223.999C272.361 227.359 213.111 271.519 217.001 274.999Z" fill="#DD6A57"/>
<path d="M269.06 282.299C261.66 278.429 252.65 269.039 246.51 268.059C245.008 267.765 243.451 267.962 242.07 268.621C240.689 269.28 239.556 270.366 238.84 271.719C238.84 271.719 236.02 265.449 230.3 265.479C227.37 265.479 224.81 270.199 224.81 270.199C224.81 270.199 222.32 265.269 217.25 265.609C213.2 265.879 211.25 270.559 211.25 270.559C211.25 270.559 206.67 266.939 202.63 268.559C194.45 271.789 193.09 306.559 205.69 312.439C211.56 315.179 211.43 306.669 211.43 306.669C211.43 306.669 214.57 318.869 221.73 319.329C228.89 319.789 228.06 308.749 228.06 308.749C228.06 308.749 231.21 320.539 238.68 320.269C246.46 319.999 243.74 309.089 243.74 309.089C243.74 309.089 248.68 317.029 254.35 315.509C263.72 313.009 253.65 294.189 255.77 286.619H267.54L269.06 282.299Z" fill="#DD6A57"/>
<path d="M258.381 274.899C265.711 277.959 274.071 266.389 281.611 269.079C291.391 272.569 282.351 284.639 267.531 286.599H255.761L258.381 274.899Z" fill="#DD6A57"/>
<path d="M210.821 271.248C210.821 271.224 210.811 271.201 210.794 271.185C210.778 271.168 210.755 271.158 210.731 271.158C210.707 271.158 210.684 271.168 210.667 271.185C210.65 271.201 210.641 271.224 210.641 271.248C207.411 282.578 207.321 296.018 211.371 307.158C211.501 307.518 212.161 307.468 212.091 307.038C210.111 294.718 209.331 283.658 210.821 271.248Z" fill="#263238"/>
<path d="M224.74 269.999C224.74 269.859 224.53 269.829 224.49 269.999C221.22 281.699 221.49 296.829 227.72 309.129C227.93 309.549 228.55 309.709 228.34 309.209C224.85 300.729 223.34 281.189 224.74 269.999Z" fill="#263238"/>
<path d="M244.46 309.82C238.99 297.82 237.92 285.25 238.68 272.19C238.68 272.02 238.45 272.02 238.4 272.19C236.29 278.48 236.68 286.85 237.53 293.34C238.195 299.363 240.426 305.107 244 310C244.18 310.21 244.58 310.08 244.46 309.82Z" fill="#263238"/>
<path d="M282.191 268.159C277.391 266.559 272.461 270.399 268.421 272.549C267.127 273.319 265.765 273.965 264.351 274.479C261.151 275.479 258.781 274.839 257.351 273.949C255.111 272.519 248.121 265.539 243.071 267.859C241.328 268.674 239.837 269.942 238.751 271.529C237.211 268.729 235.241 265.679 231.831 265.119C231.079 264.992 230.309 265.025 229.572 265.216C228.834 265.407 228.145 265.753 227.551 266.229C226.915 266.72 226.35 267.295 225.871 267.939C225.396 268.518 225.005 269.161 224.711 269.849C224.709 269.826 224.709 269.802 224.711 269.779L224.601 269.569L224.391 269.139C224.105 268.563 223.699 268.055 223.201 267.649C223.106 267.552 222.992 267.476 222.866 267.424C222.741 267.372 222.606 267.347 222.471 267.349C222.449 267.349 222.429 267.357 222.414 267.372C222.399 267.387 222.391 267.408 222.391 267.429C222.391 267.45 222.399 267.471 222.414 267.486C222.429 267.501 222.449 267.509 222.471 267.509C222.705 267.62 222.895 267.807 223.011 268.039C223.171 268.279 223.321 268.529 223.491 268.759C223.661 268.989 223.821 269.229 223.991 269.459L224.241 269.829L224.351 270.019C224.399 270.08 224.452 270.137 224.511 270.189C224.525 270.208 224.543 270.223 224.564 270.233C224.584 270.244 224.607 270.249 224.631 270.249C224.654 270.249 224.677 270.244 224.698 270.233C224.719 270.223 224.737 270.208 224.751 270.189C225.265 269.732 225.731 269.222 226.141 268.669C226.644 268.083 227.204 267.547 227.811 267.069C228.387 266.623 229.051 266.304 229.759 266.131C230.467 265.959 231.204 265.938 231.921 266.069C234.981 266.669 236.921 269.389 238.551 271.819C238.551 271.819 238.551 271.819 238.601 271.819C238.551 271.899 238.661 271.969 238.721 271.909C240.401 270.439 242.001 268.789 244.321 268.449C246.821 268.079 249.191 269.279 251.261 270.539C252.297 271.149 253.299 271.817 254.261 272.539C255.111 273.199 255.921 273.939 256.831 274.539C260.721 276.989 264.981 275.089 266.041 274.639C268.131 273.697 270.159 272.622 272.111 271.419C274.073 270.103 276.286 269.208 278.611 268.789C279.678 268.632 280.768 268.747 281.779 269.125C282.789 269.503 283.688 270.13 284.391 270.949C285.121 271.889 286.051 273.649 284.141 277.659C284.141 277.659 284.141 277.739 284.201 277.709C285.201 276.669 288.381 270.229 282.191 268.159Z" fill="#263238"/>
<path d="M324.361 210.779L278.811 203.499C278.811 203.499 300.571 160.409 313.641 147.909C326.541 135.569 332.821 148.209 330.921 167.269C328.821 188.399 324.361 210.779 324.361 210.779Z" fill="#37474F"/>
<path d="M322.88 202.3C321.6 202 320.29 201.81 319.01 201.52C317.73 201.23 316.5 201.05 315.24 200.86C312.67 200.46 310.09 200.1 307.52 199.75C302.44 199.05 297.36 198.28 292.26 197.75C289.36 197.43 286.48 196.99 283.57 196.75C283.48 196.75 283.47 196.89 283.57 196.91C288.62 198.09 293.76 198.91 298.88 199.8C304 200.69 309.04 201.41 314.14 201.96C315.57 202.12 317.01 202.3 318.44 202.37C319.87 202.44 321.39 202.58 322.86 202.6C322.9 202.603 322.939 202.589 322.969 202.563C322.999 202.537 323.018 202.5 323.02 202.46C323.023 202.42 323.01 202.381 322.983 202.351C322.957 202.321 322.92 202.303 322.88 202.3Z" fill="#263238"/>
<path d="M299.001 287H419.631C419.631 287 369.491 162.56 344.001 144.38C336.351 138.92 324.161 138.31 315.941 149.27C309.201 158.27 290.491 194.02 289.641 206.88C288.791 219.74 298.881 232.45 298.881 232.45L299.001 287Z" fill="#455A64"/>
<path d="M338.94 202.68C339.25 202.6 339.55 202.56 339.85 202.5C340.115 202.44 340.39 202.44 340.654 202.501C340.918 202.561 341.166 202.68 341.378 202.849C341.59 203.018 341.762 203.233 341.88 203.477C341.998 203.721 342.06 203.989 342.06 204.26C342.053 204.501 342.108 204.74 342.22 204.954C342.332 205.168 342.498 205.349 342.7 205.48C342.927 205.622 343.184 205.711 343.45 205.74C343.757 205.784 344.06 205.845 344.36 205.92C344.06 206 343.76 206.04 343.45 206.1C343.115 206.166 342.768 206.135 342.45 206.01C342.112 205.866 341.824 205.624 341.623 205.316C341.422 205.008 341.317 204.648 341.32 204.28C341.315 204.039 341.249 203.804 341.128 203.596C341.007 203.388 340.836 203.214 340.63 203.09C340.393 202.96 340.13 202.882 339.86 202.86C339.55 202.8 339.25 202.76 338.94 202.68Z" fill="white"/>
<path d="M292.801 202.68C293.101 202.6 293.401 202.56 293.701 202.5C293.965 202.44 294.24 202.44 294.504 202.501C294.769 202.561 295.016 202.68 295.228 202.849C295.441 203.018 295.612 203.233 295.73 203.477C295.848 203.721 295.91 203.989 295.911 204.26C295.905 204.502 295.962 204.741 296.076 204.955C296.19 205.169 296.357 205.349 296.561 205.48C296.786 205.626 297.044 205.715 297.311 205.74C297.611 205.8 297.911 205.83 298.211 205.92C297.911 206 297.611 206.04 297.311 206.1C296.976 206.165 296.629 206.134 296.311 206.01C295.975 205.862 295.689 205.62 295.488 205.313C295.288 205.006 295.181 204.647 295.181 204.28C295.175 204.039 295.109 203.804 294.988 203.596C294.868 203.388 294.697 203.214 294.491 203.09C294.254 202.959 293.991 202.88 293.721 202.86C293.401 202.8 293.101 202.76 292.801 202.68Z" fill="white"/>
<path d="M355.7 262.619C356 262.539 356.31 262.499 356.61 262.439C356.875 262.382 357.148 262.385 357.411 262.448C357.675 262.51 357.92 262.631 358.131 262.8C358.342 262.97 358.512 263.184 358.63 263.428C358.747 263.671 358.809 263.938 358.81 264.209C358.807 264.45 358.866 264.688 358.979 264.902C359.093 265.115 359.258 265.296 359.46 265.429C359.688 265.568 359.944 265.654 360.21 265.679C360.51 265.739 360.82 265.779 361.12 265.859C360.82 265.949 360.51 265.989 360.21 266.049C359.874 266.111 359.527 266.077 359.21 265.949C358.872 265.804 358.583 265.562 358.38 265.255C358.178 264.947 358.07 264.587 358.07 264.219C358.069 263.979 358.004 263.743 357.883 263.536C357.762 263.329 357.588 263.158 357.38 263.039C357.149 262.903 356.888 262.824 356.62 262.809C356.31 262.749 356 262.709 355.7 262.619Z" fill="white"/>
<path d="M376.561 205.918C376.861 205.828 377.171 205.798 377.471 205.738C377.735 205.678 378.009 205.678 378.273 205.739C378.537 205.799 378.784 205.919 378.995 206.088C379.206 206.257 379.377 206.472 379.494 206.716C379.611 206.96 379.671 207.228 379.671 207.498C379.667 207.74 379.725 207.979 379.838 208.192C379.952 208.405 380.118 208.587 380.321 208.718C380.546 208.864 380.803 208.95 381.071 208.968C381.371 209.038 381.681 209.068 381.981 209.158C381.681 209.238 381.371 209.278 381.071 209.338C380.736 209.406 380.388 209.374 380.071 209.248C379.732 209.103 379.443 208.862 379.241 208.555C379.038 208.247 378.93 207.887 378.931 207.518C378.929 207.277 378.864 207.041 378.743 206.832C378.622 206.623 378.449 206.45 378.241 206.328C378.007 206.197 377.748 206.119 377.481 206.098C377.171 205.998 376.861 205.998 376.561 205.918Z" fill="white"/>
<path d="M323.23 175.428C323.54 175.348 323.84 175.308 324.14 175.248C324.474 175.175 324.821 175.2 325.14 175.318C325.488 175.448 325.787 175.68 326 175.983C326.212 176.287 326.328 176.648 326.33 177.018C326.33 177.259 326.388 177.497 326.502 177.71C326.615 177.923 326.78 178.104 326.98 178.238C327.21 178.373 327.466 178.458 327.73 178.488C328.04 178.548 328.34 178.588 328.64 178.668C328.34 178.758 328.04 178.788 327.73 178.858C327.394 178.916 327.049 178.882 326.73 178.758C326.387 178.612 326.096 178.366 325.895 178.052C325.693 177.738 325.591 177.371 325.6 176.998C325.596 176.759 325.53 176.525 325.409 176.318C325.288 176.112 325.117 175.94 324.91 175.818C324.675 175.681 324.412 175.599 324.14 175.578C323.84 175.548 323.54 175.518 323.23 175.428Z" fill="white"/>
<path d="M356.061 174.739C356.361 174.659 356.661 174.619 356.971 174.559C357.304 174.489 357.65 174.513 357.971 174.629C358.317 174.76 358.617 174.992 358.831 175.295C359.044 175.598 359.163 175.958 359.171 176.329C359.166 176.571 359.223 176.81 359.337 177.023C359.451 177.237 359.617 177.418 359.821 177.549C360.048 177.69 360.304 177.775 360.571 177.799C360.871 177.859 361.171 177.899 361.481 177.979C361.171 178.069 360.871 178.109 360.571 178.169C360.235 178.232 359.887 178.198 359.571 178.069C359.232 177.924 358.943 177.683 358.741 177.375C358.538 177.067 358.43 176.707 358.431 176.339C358.427 176.099 358.362 175.865 358.241 175.658C358.12 175.451 357.947 175.279 357.741 175.159C357.509 175.023 357.248 174.944 356.981 174.929C356.671 174.881 356.364 174.818 356.061 174.739Z" fill="white"/>
<path d="M334.811 143.229C335.111 143.149 335.421 143.109 335.721 143.049C335.985 142.989 336.259 142.989 336.523 143.049C336.787 143.11 337.034 143.229 337.245 143.398C337.456 143.568 337.627 143.782 337.744 144.026C337.861 144.271 337.921 144.538 337.921 144.809C337.915 145.051 337.972 145.29 338.086 145.504C338.2 145.718 338.367 145.898 338.571 146.029C338.797 146.173 339.054 146.262 339.321 146.289C339.621 146.349 339.931 146.379 340.231 146.469C339.931 146.549 339.621 146.589 339.321 146.649C338.986 146.716 338.638 146.685 338.321 146.559C337.982 146.414 337.693 146.173 337.491 145.865C337.288 145.558 337.18 145.197 337.181 144.829C337.179 144.588 337.114 144.351 336.993 144.143C336.872 143.934 336.699 143.76 336.491 143.639C336.257 143.508 335.998 143.429 335.731 143.409C335.421 143.349 335.111 143.309 334.811 143.229Z" fill="white"/>
<path d="M315.181 227.759C315.481 227.679 315.781 227.639 316.081 227.579C316.414 227.505 316.761 227.529 317.081 227.649C317.428 227.776 317.729 228.006 317.943 228.307C318.157 228.609 318.275 228.969 318.281 229.339C318.275 229.581 318.332 229.82 318.446 230.034C318.56 230.248 318.727 230.428 318.931 230.559C319.156 230.704 319.413 230.794 319.681 230.819C319.981 230.879 320.281 230.919 320.581 230.999C320.281 231.089 319.981 231.119 319.681 231.179C319.346 231.244 318.999 231.212 318.681 231.089C318.345 230.941 318.059 230.699 317.858 230.392C317.658 230.085 317.551 229.726 317.551 229.359C317.545 229.118 317.479 228.883 317.358 228.675C317.238 228.467 317.066 228.293 316.861 228.169C316.623 228.039 316.361 227.961 316.091 227.939C315.781 227.879 315.481 227.849 315.181 227.759Z" fill="white"/>
<path d="M351.001 282.689C351.301 282.599 351.611 282.559 351.911 282.499C352.175 282.443 352.449 282.446 352.712 282.508C352.975 282.571 353.221 282.691 353.432 282.861C353.643 283.03 353.813 283.245 353.93 283.488C354.048 283.732 354.109 283.999 354.111 284.269C354.108 284.511 354.166 284.749 354.28 284.962C354.394 285.175 354.559 285.357 354.761 285.489C354.987 285.633 355.244 285.719 355.511 285.739C355.811 285.799 356.121 285.839 356.421 285.919C356.121 286.009 355.811 286.049 355.511 286.109C355.175 286.172 354.828 286.137 354.511 286.009C354.172 285.865 353.882 285.624 353.68 285.316C353.477 285.009 353.369 284.648 353.371 284.279C353.369 284.039 353.305 283.804 353.184 283.597C353.063 283.39 352.889 283.218 352.681 283.099C352.449 282.964 352.189 282.885 351.921 282.869C351.581 282.809 351.271 282.769 351.001 282.689Z" fill="white"/>
<path d="M333.351 253.169C333.651 253.089 333.951 253.049 334.251 252.989C334.584 252.921 334.93 252.945 335.251 253.059C335.599 253.189 335.9 253.42 336.114 253.723C336.328 254.027 336.446 254.388 336.451 254.759C336.446 255.001 336.503 255.24 336.617 255.454C336.731 255.667 336.897 255.848 337.101 255.979C337.327 256.122 337.584 256.208 337.851 256.229C338.151 256.289 338.451 256.329 338.761 256.409C338.451 256.499 338.151 256.529 337.851 256.599C337.514 256.656 337.169 256.621 336.851 256.499C336.515 256.352 336.229 256.11 336.028 255.802C335.828 255.495 335.721 255.136 335.721 254.769C335.714 254.53 335.648 254.297 335.527 254.091C335.406 253.885 335.236 253.712 335.031 253.589C334.798 253.448 334.533 253.369 334.261 253.359C334.001 253.289 333.651 253.259 333.351 253.169Z" fill="white"/>
<path d="M300.74 258.539C301.05 258.449 301.35 258.409 301.65 258.349C301.915 258.292 302.188 258.295 302.452 258.358C302.715 258.421 302.96 258.541 303.171 258.711C303.382 258.88 303.552 259.094 303.67 259.338C303.787 259.582 303.849 259.848 303.85 260.119C303.848 260.36 303.906 260.599 304.019 260.812C304.133 261.025 304.298 261.206 304.5 261.339C304.726 261.482 304.984 261.568 305.25 261.589C305.56 261.649 305.86 261.689 306.16 261.769C305.86 261.847 305.557 261.911 305.25 261.959C304.914 262.022 304.567 261.987 304.25 261.859C303.911 261.715 303.622 261.474 303.419 261.166C303.216 260.858 303.109 260.497 303.11 260.129C303.109 259.89 303.045 259.656 302.926 259.449C302.807 259.242 302.636 259.07 302.43 258.949C302.194 258.815 301.931 258.736 301.66 258.719C301.35 258.659 301.05 258.619 300.74 258.539Z" fill="white"/>
<path d="M348.36 228.48C348.66 228.4 348.96 228.36 349.26 228.3C349.525 228.243 349.8 228.247 350.063 228.309C350.327 228.372 350.573 228.492 350.784 228.661C350.996 228.831 351.167 229.045 351.286 229.288C351.404 229.532 351.467 229.799 351.47 230.07C351.466 230.312 351.523 230.551 351.637 230.764C351.751 230.978 351.917 231.159 352.12 231.29C352.347 231.432 352.604 231.518 352.87 231.54C353.17 231.6 353.47 231.64 353.77 231.72C353.47 231.81 353.17 231.84 352.87 231.91C352.534 231.971 352.188 231.936 351.87 231.81C351.534 231.662 351.249 231.42 351.048 231.113C350.847 230.806 350.74 230.447 350.74 230.08C350.734 229.841 350.667 229.607 350.547 229.401C350.426 229.195 350.255 229.022 350.05 228.9C349.816 228.761 349.552 228.682 349.28 228.67C349 228.6 348.66 228.57 348.36 228.48Z" fill="white"/>
<path d="M390.051 268.889C390.351 268.809 390.661 268.769 390.961 268.709C391.294 268.636 391.641 268.661 391.961 268.779C392.308 268.909 392.608 269.141 392.82 269.444C393.033 269.748 393.148 270.109 393.151 270.479C393.15 270.72 393.209 270.958 393.322 271.171C393.436 271.384 393.6 271.565 393.801 271.699C394.03 271.834 394.286 271.919 394.551 271.949C394.861 272.009 395.161 272.049 395.461 272.129C395.161 272.219 394.861 272.249 394.551 272.319C394.285 272.368 394.011 272.358 393.75 272.288C393.489 272.218 393.247 272.091 393.041 271.915C392.835 271.74 392.671 271.521 392.56 271.274C392.449 271.028 392.395 270.759 392.401 270.489C392.399 270.249 392.335 270.014 392.213 269.807C392.092 269.6 391.919 269.428 391.711 269.309C391.48 269.17 391.22 269.088 390.951 269.069C390.661 268.999 390.351 268.999 390.051 268.889Z" fill="white"/>
<path d="M373.501 244.218C373.801 244.138 374.111 244.098 374.411 244.038C374.675 243.982 374.949 243.985 375.212 244.047C375.475 244.11 375.721 244.23 375.932 244.4C376.143 244.57 376.313 244.784 376.43 245.027C376.548 245.271 376.609 245.538 376.611 245.808C376.606 246.05 376.664 246.289 376.777 246.503C376.891 246.716 377.058 246.897 377.261 247.028C377.486 247.173 377.744 247.259 378.011 247.278C378.311 247.338 378.621 247.378 378.921 247.458C378.621 247.548 378.311 247.588 378.011 247.648C377.675 247.712 377.328 247.677 377.011 247.548C376.672 247.404 376.382 247.163 376.18 246.855C375.977 246.548 375.869 246.187 375.871 245.818C375.869 245.578 375.805 245.343 375.684 245.136C375.563 244.929 375.389 244.757 375.181 244.638C374.949 244.503 374.689 244.424 374.421 244.408C374.111 244.348 373.801 244.308 373.501 244.218Z" fill="white"/>
<path d="M408.681 280.169C408.991 280.089 409.291 280.049 409.591 279.989C409.855 279.933 410.129 279.936 410.392 279.999C410.655 280.061 410.901 280.182 411.112 280.351C411.322 280.521 411.493 280.735 411.61 280.979C411.727 281.222 411.789 281.489 411.791 281.759C411.788 282.001 411.846 282.239 411.96 282.452C412.073 282.666 412.239 282.847 412.441 282.979C412.666 283.123 412.924 283.209 413.191 283.229C413.501 283.289 413.801 283.329 414.101 283.409C413.801 283.488 413.497 283.551 413.191 283.599C412.855 283.662 412.508 283.627 412.191 283.499C411.852 283.356 411.563 283.115 411.362 282.807C411.16 282.499 411.056 282.137 411.061 281.769C411.054 281.53 410.988 281.297 410.867 281.091C410.746 280.885 410.576 280.712 410.371 280.589C410.135 280.455 409.871 280.377 409.601 280.359C409.291 280.299 409.001 280.259 408.681 280.169Z" fill="white"/>
<path d="M326.001 192.458C325.851 192.728 325.661 192.968 325.491 193.228C325.346 193.458 325.151 193.651 324.92 193.795C324.69 193.939 324.43 194.029 324.16 194.059C323.891 194.088 323.617 194.057 323.361 193.967C323.105 193.877 322.873 193.73 322.681 193.538C322.514 193.363 322.305 193.234 322.074 193.164C321.842 193.094 321.597 193.085 321.361 193.138C321.1 193.197 320.856 193.317 320.651 193.488C320.404 193.672 320.147 193.842 319.881 193.998C320.041 193.728 320.221 193.488 320.391 193.228C320.587 192.941 320.861 192.715 321.181 192.578C321.519 192.445 321.888 192.414 322.244 192.489C322.599 192.564 322.925 192.741 323.181 192.998C323.354 193.165 323.567 193.285 323.8 193.346C324.033 193.408 324.278 193.408 324.511 193.348C324.77 193.277 325.01 193.147 325.211 192.968C325.531 192.798 325.771 192.608 326.001 192.458Z" fill="white"/>
<path d="M313.931 172.208C313.781 172.478 313.591 172.718 313.421 172.978C313.275 173.208 313.08 173.401 312.85 173.545C312.62 173.689 312.36 173.779 312.09 173.809C311.82 173.838 311.547 173.807 311.291 173.717C311.035 173.627 310.802 173.48 310.611 173.288C310.444 173.112 310.235 172.983 310.004 172.913C309.772 172.843 309.526 172.834 309.291 172.888C309.029 172.947 308.786 173.067 308.581 173.238C308.333 173.422 308.076 173.592 307.811 173.748C307.971 173.478 308.151 173.238 308.321 172.978C308.517 172.691 308.791 172.465 309.111 172.328C309.449 172.195 309.818 172.164 310.173 172.239C310.529 172.314 310.855 172.491 311.111 172.748C311.283 172.916 311.497 173.036 311.73 173.098C311.963 173.159 312.207 173.159 312.441 173.098C312.7 173.027 312.94 172.897 313.141 172.718C313.421 172.548 313.661 172.358 313.931 172.208Z" fill="white"/>
<path d="M375.001 227.709C374.841 227.989 374.661 228.229 374.491 228.479C374.301 228.769 374.034 229.001 373.721 229.149C373.389 229.293 373.022 229.336 372.666 229.272C372.31 229.208 371.981 229.04 371.721 228.789C371.552 228.617 371.343 228.489 371.112 228.419C370.882 228.349 370.637 228.339 370.401 228.389C370.14 228.448 369.897 228.568 369.691 228.739C369.431 228.909 369.191 229.099 368.921 229.249C369.071 228.979 369.261 228.739 369.431 228.479C369.623 228.192 369.894 227.966 370.211 227.829C370.549 227.7 370.918 227.671 371.273 227.745C371.627 227.82 371.953 227.995 372.211 228.249C372.382 228.417 372.593 228.537 372.825 228.599C373.056 228.66 373.299 228.66 373.531 228.599C373.792 228.531 374.035 228.404 374.241 228.229C374.521 228.059 374.761 227.869 375.001 227.709Z" fill="white"/>
<path d="M344.461 162.079C344.311 162.349 344.121 162.589 343.951 162.849C343.764 163.136 343.501 163.364 343.191 163.509C342.853 163.662 342.478 163.71 342.112 163.648C341.747 163.585 341.409 163.415 341.141 163.159C340.973 162.985 340.764 162.856 340.534 162.784C340.303 162.713 340.058 162.701 339.821 162.749C339.56 162.81 339.317 162.93 339.111 163.099C338.851 163.269 338.611 163.459 338.341 163.619C338.491 163.339 338.681 163.099 338.851 162.839C339.045 162.552 339.32 162.329 339.641 162.199C339.979 162.066 340.348 162.035 340.704 162.11C341.059 162.185 341.385 162.362 341.641 162.619C341.816 162.794 342.033 162.921 342.271 162.987C342.509 163.054 342.761 163.058 343.001 162.999C343.259 162.924 343.497 162.795 343.701 162.619C344.001 162.419 344.191 162.229 344.461 162.079Z" fill="white"/>
<path d="M323.28 147.118C323.13 147.388 322.94 147.628 322.77 147.888C322.581 148.176 322.319 148.407 322.01 148.558C321.672 148.71 321.295 148.756 320.93 148.692C320.565 148.628 320.227 148.456 319.96 148.198C319.793 148.023 319.584 147.895 319.353 147.825C319.122 147.754 318.876 147.745 318.64 147.798C318.378 147.855 318.134 147.975 317.93 148.148C317.67 148.318 317.43 148.508 317.16 148.658C317.31 148.388 317.5 148.148 317.67 147.888C317.864 147.599 318.139 147.373 318.46 147.238C318.798 147.105 319.168 147.074 319.523 147.149C319.878 147.224 320.204 147.401 320.46 147.658C320.632 147.827 320.846 147.948 321.079 148.009C321.312 148.071 321.557 148.07 321.79 148.008C322.05 147.938 322.289 147.807 322.49 147.628C322.77 147.458 323 147.268 323.28 147.118Z" fill="white"/>
<path d="M343.27 181.119C343.36 181.419 343.39 181.729 343.46 182.029C343.522 182.363 343.498 182.707 343.39 183.029C343.259 183.375 343.026 183.673 342.723 183.885C342.42 184.097 342.06 184.213 341.69 184.219C341.449 184.216 341.21 184.273 340.997 184.387C340.783 184.501 340.602 184.667 340.47 184.869C340.325 185.094 340.239 185.352 340.22 185.619C340.15 185.919 340.12 186.229 340.03 186.529C339.95 186.229 339.91 185.919 339.85 185.619C339.782 185.283 339.817 184.935 339.95 184.619C340.093 184.279 340.334 183.989 340.642 183.786C340.95 183.583 341.312 183.476 341.68 183.479C341.92 183.477 342.155 183.411 342.362 183.29C342.569 183.17 342.741 182.997 342.86 182.789C342.991 182.556 343.07 182.296 343.09 182.029C343.15 181.729 343.19 181.419 343.27 181.119Z" fill="white"/>
<path d="M336.06 234.389C336.14 234.689 336.18 234.999 336.24 235.299C336.297 235.563 336.294 235.837 336.231 236.1C336.169 236.363 336.048 236.609 335.879 236.82C335.709 237.03 335.495 237.201 335.251 237.318C335.008 237.435 334.741 237.497 334.47 237.499C334.229 237.494 333.99 237.551 333.776 237.665C333.563 237.779 333.382 237.945 333.25 238.149C333.11 238.376 333.024 238.633 333 238.899C332.94 239.199 332.9 239.509 332.82 239.809C332.73 239.509 332.69 239.199 332.63 238.899C332.567 238.563 332.602 238.215 332.73 237.899C332.875 237.56 333.117 237.272 333.424 237.069C333.732 236.866 334.092 236.758 334.46 236.759C334.7 236.757 334.936 236.692 335.143 236.571C335.35 236.45 335.521 236.277 335.64 236.069C335.776 235.837 335.855 235.577 335.87 235.309C335.93 234.999 336 234.689 336.06 234.389Z" fill="white"/>
<path d="M406 259.068C406.09 259.368 406.13 259.668 406.19 259.968C406.246 260.233 406.243 260.507 406.181 260.771C406.118 261.035 405.998 261.281 405.828 261.492C405.659 261.704 405.445 261.875 405.201 261.994C404.958 262.112 404.691 262.175 404.42 262.178C404.178 262.174 403.939 262.231 403.726 262.345C403.512 262.459 403.331 262.625 403.2 262.828C403.053 263.053 402.967 263.311 402.95 263.578C402.89 263.878 402.85 264.178 402.77 264.478C402.68 264.178 402.64 263.878 402.58 263.578C402.519 263.242 402.554 262.896 402.68 262.578C402.827 262.242 403.069 261.955 403.376 261.754C403.683 261.554 404.043 261.447 404.41 261.448C404.649 261.442 404.882 261.375 405.089 261.255C405.295 261.134 405.467 260.963 405.59 260.758C405.724 260.522 405.803 260.259 405.82 259.988C405.89 259.668 405.93 259.368 406 259.068Z" fill="white"/>
<path d="M373.601 188.5C373.681 188.8 373.721 189.1 373.781 189.41C373.851 189.743 373.827 190.09 373.711 190.41C373.579 190.757 373.347 191.056 373.044 191.27C372.741 191.484 372.382 191.602 372.011 191.61C371.769 191.605 371.53 191.663 371.316 191.777C371.103 191.89 370.922 192.057 370.791 192.26C370.65 192.487 370.564 192.744 370.541 193.01C370.481 193.31 370.441 193.61 370.361 193.92C370.271 193.61 370.241 193.31 370.171 193.01C370.122 192.744 370.133 192.471 370.202 192.209C370.272 191.948 370.399 191.706 370.575 191.5C370.75 191.294 370.969 191.13 371.216 191.019C371.462 190.908 371.731 190.854 372.001 190.86C372.24 190.856 372.475 190.791 372.682 190.67C372.888 190.549 373.06 190.377 373.181 190.17C373.321 189.94 373.4 189.679 373.411 189.41C373.481 189.1 373.511 188.8 373.601 188.5Z" fill="white"/>
<path d="M373.601 274C373.681 274.3 373.721 274.6 373.781 274.9C373.837 275.165 373.834 275.439 373.771 275.703C373.709 275.966 373.589 276.213 373.419 276.424C373.25 276.636 373.036 276.807 372.792 276.925C372.549 277.044 372.282 277.107 372.011 277.11C371.769 277.105 371.53 277.163 371.317 277.277C371.103 277.39 370.922 277.557 370.791 277.76C370.648 277.986 370.563 278.244 370.541 278.51C370.481 278.81 370.441 279.11 370.361 279.41C370.271 279.11 370.241 278.81 370.171 278.51C370.114 278.174 370.149 277.828 370.271 277.51C370.418 277.174 370.661 276.888 370.968 276.688C371.275 276.487 371.634 276.38 372.001 276.38C372.24 276.374 372.473 276.307 372.679 276.186C372.886 276.066 373.058 275.895 373.181 275.69C373.322 275.457 373.401 275.192 373.411 274.92C373.481 274.63 373.511 274.33 373.601 274Z" fill="white"/>
<path d="M390.051 225.049C390.141 225.349 390.171 225.659 390.231 225.959C390.291 226.223 390.291 226.497 390.23 226.761C390.17 227.025 390.05 227.272 389.881 227.483C389.712 227.695 389.497 227.865 389.253 227.982C389.009 228.099 388.741 228.16 388.471 228.159C388.229 228.155 387.99 228.213 387.777 228.327C387.564 228.44 387.383 228.606 387.251 228.809C387.106 229.034 387.02 229.292 387.001 229.559C386.931 229.859 386.901 230.169 386.811 230.469C386.731 230.169 386.691 229.859 386.631 229.559C386.562 229.223 386.597 228.874 386.731 228.559C386.873 228.22 387.112 227.931 387.418 227.728C387.724 227.526 388.083 227.418 388.451 227.419C388.692 227.417 388.928 227.352 389.137 227.231C389.346 227.11 389.519 226.937 389.641 226.729C389.772 226.495 389.85 226.236 389.871 225.969C389.931 225.659 390.001 225.349 390.051 225.049Z" fill="white"/>
<path d="M306.691 236.299C306.781 236.599 306.811 236.899 306.871 237.199C306.931 237.463 306.93 237.738 306.87 238.002C306.809 238.267 306.69 238.514 306.521 238.726C306.352 238.939 306.138 239.11 305.894 239.228C305.65 239.346 305.382 239.408 305.111 239.409C304.869 239.403 304.629 239.46 304.416 239.574C304.202 239.688 304.021 239.855 303.891 240.059C303.744 240.283 303.658 240.541 303.641 240.809C303.571 241.109 303.541 241.409 303.451 241.709C303.371 241.409 303.331 241.109 303.271 240.809C303.205 240.473 303.24 240.125 303.371 239.809C303.514 239.472 303.754 239.185 304.06 238.984C304.366 238.783 304.725 238.677 305.091 238.679C305.331 238.673 305.566 238.607 305.774 238.486C305.982 238.366 306.156 238.195 306.281 237.989C306.413 237.752 306.492 237.489 306.511 237.219C306.571 236.899 306.611 236.599 306.691 236.299Z" fill="white"/>
<path d="M308.311 188.5C308.386 188.8 308.446 189.104 308.491 189.41C308.565 189.742 308.544 190.089 308.431 190.41C308.299 190.757 308.067 191.056 307.764 191.27C307.462 191.484 307.102 191.602 306.731 191.61C306.489 191.604 306.25 191.661 306.036 191.775C305.822 191.889 305.641 192.056 305.511 192.26C305.366 192.485 305.28 192.743 305.261 193.01C305.191 193.31 305.161 193.61 305.071 193.92C304.991 193.61 304.951 193.31 304.891 193.01C304.824 192.675 304.855 192.328 304.981 192.01C305.126 191.671 305.367 191.383 305.675 191.18C305.982 190.978 306.343 190.87 306.711 190.87C306.952 190.866 307.187 190.801 307.396 190.68C307.604 190.559 307.778 190.387 307.901 190.18C308.032 189.946 308.111 189.687 308.131 189.42C308.191 189.1 308.231 188.8 308.311 188.5Z" fill="white"/>
<path d="M325.75 157.43C325.83 157.73 325.87 158.03 325.93 158.34C326.001 158.673 325.976 159.019 325.86 159.34C325.729 159.686 325.497 159.986 325.194 160.2C324.891 160.413 324.531 160.532 324.16 160.54C323.919 160.535 323.68 160.592 323.466 160.706C323.252 160.82 323.072 160.986 322.94 161.19C322.8 161.417 322.714 161.674 322.69 161.94C322.63 162.24 322.59 162.54 322.51 162.85C322.42 162.54 322.39 162.24 322.32 161.94C322.259 161.604 322.294 161.257 322.42 160.94C322.568 160.604 322.81 160.318 323.117 160.117C323.425 159.917 323.783 159.81 324.15 159.81C324.39 159.806 324.624 159.741 324.831 159.62C325.038 159.499 325.21 159.327 325.33 159.12C325.47 158.89 325.549 158.628 325.56 158.36C325.63 158 325.66 157.73 325.75 157.43Z" fill="white"/>
<path d="M321.071 205.459C321.151 205.769 321.191 206.069 321.251 206.369C321.307 206.634 321.304 206.908 321.241 207.172C321.179 207.435 321.058 207.682 320.889 207.893C320.72 208.105 320.506 208.276 320.262 208.394C320.018 208.513 319.752 208.576 319.481 208.579C319.239 208.574 319 208.632 318.786 208.746C318.573 208.859 318.392 209.026 318.261 209.229C318.118 209.455 318.032 209.713 318.011 209.979C317.951 210.279 317.911 210.579 317.831 210.879C317.741 210.579 317.701 210.279 317.641 209.979C317.58 209.643 317.614 209.296 317.741 208.979C317.888 208.643 318.13 208.357 318.438 208.157C318.745 207.956 319.104 207.849 319.471 207.849C319.71 207.843 319.943 207.776 320.149 207.655C320.356 207.535 320.528 207.364 320.651 207.159C320.785 206.923 320.863 206.66 320.881 206.389C320.941 206.069 321.001 205.769 321.071 205.459Z" fill="white"/>
<path d="M363.1 211.92C363.18 212.22 363.22 212.53 363.28 212.83C363.337 213.094 363.333 213.368 363.271 213.631C363.208 213.894 363.088 214.14 362.918 214.351C362.749 214.562 362.534 214.732 362.291 214.849C362.047 214.967 361.781 215.028 361.51 215.03C361.269 215.027 361.03 215.085 360.817 215.199C360.604 215.313 360.423 215.478 360.29 215.68C360.151 215.908 360.065 216.164 360.04 216.43C359.98 216.73 359.94 217.04 359.86 217.34C359.77 217.04 359.74 216.73 359.67 216.43C359.607 216.094 359.642 215.747 359.77 215.43C359.915 215.091 360.156 214.803 360.464 214.6C360.772 214.397 361.132 214.29 361.5 214.29C361.74 214.288 361.975 214.224 362.182 214.103C362.389 213.982 362.561 213.808 362.68 213.6C362.82 213.37 362.899 213.109 362.91 212.84C363 212.53 363 212.22 363.1 211.92Z" fill="white"/>
<path d="M324.251 265.859C324.331 266.169 324.371 266.469 324.431 266.769C324.491 267.034 324.491 267.309 324.43 267.573C324.37 267.837 324.251 268.085 324.082 268.297C323.913 268.509 323.698 268.681 323.454 268.799C323.21 268.917 322.942 268.979 322.671 268.979C322.429 268.972 322.189 269.028 321.974 269.142C321.76 269.256 321.58 269.424 321.451 269.629C321.307 269.852 321.218 270.106 321.191 270.369C321.146 270.676 321.086 270.979 321.011 271.279C320.931 270.979 320.891 270.679 320.831 270.369C320.764 270.034 320.796 269.687 320.921 269.369C321.065 269.031 321.307 268.743 321.615 268.542C321.923 268.341 322.283 268.236 322.651 268.239C322.891 268.234 323.126 268.167 323.334 268.047C323.542 267.926 323.717 267.755 323.841 267.549C323.971 267.312 324.049 267.049 324.071 266.779C324.131 266.469 324.171 266.169 324.251 265.859Z" fill="white"/>
<path d="M355.891 196.669C356.051 196.399 356.241 196.159 356.411 195.899C356.595 195.61 356.859 195.381 357.171 195.239C357.502 195.095 357.868 195.051 358.223 195.113C358.579 195.176 358.908 195.341 359.171 195.589C359.34 195.764 359.551 195.893 359.783 195.964C360.016 196.036 360.262 196.048 360.501 195.999C360.758 195.938 360.997 195.819 361.201 195.649C361.461 195.469 361.701 195.289 361.981 195.129C361.821 195.409 361.631 195.649 361.461 195.909C361.268 196.193 360.997 196.416 360.681 196.549C360.342 196.68 359.973 196.709 359.619 196.635C359.264 196.56 358.938 196.385 358.681 196.129C358.508 195.965 358.296 195.846 358.065 195.785C357.835 195.724 357.592 195.722 357.361 195.779C357.103 195.854 356.864 195.984 356.661 196.159C356.411 196.329 356.171 196.519 355.891 196.669Z" fill="white"/>
<path d="M331.381 218.879C331.531 218.609 331.721 218.369 331.891 218.109C332.036 217.88 332.231 217.686 332.461 217.542C332.692 217.398 332.951 217.308 333.221 217.278C333.491 217.249 333.764 217.28 334.02 217.37C334.276 217.46 334.509 217.607 334.701 217.799C334.867 217.975 335.076 218.104 335.308 218.174C335.539 218.244 335.785 218.253 336.021 218.199C336.282 218.14 336.525 218.02 336.731 217.849C336.978 217.665 337.235 217.495 337.501 217.339C337.341 217.609 337.161 217.849 336.991 218.109C336.838 218.333 336.637 218.52 336.402 218.656C336.168 218.792 335.906 218.875 335.636 218.897C335.365 218.919 335.094 218.88 334.84 218.784C334.587 218.687 334.358 218.535 334.171 218.339C334 218.172 333.788 218.052 333.557 217.991C333.326 217.929 333.082 217.929 332.851 217.989C332.593 218.064 332.354 218.193 332.151 218.369C331.891 218.539 331.651 218.729 331.381 218.879Z" fill="white"/>
<path d="M314.761 251.6C314.921 251.32 315.111 251.08 315.281 250.83C315.426 250.6 315.621 250.407 315.851 250.263C316.082 250.119 316.341 250.029 316.611 249.999C316.881 249.969 317.154 250.001 317.41 250.091C317.666 250.181 317.899 250.327 318.091 250.52C318.259 250.693 318.468 250.821 318.699 250.891C318.93 250.961 319.175 250.971 319.411 250.92C319.672 250.861 319.915 250.741 320.121 250.57C320.368 250.386 320.625 250.216 320.891 250.06C320.731 250.33 320.551 250.57 320.381 250.83C320.229 251.053 320.029 251.24 319.795 251.377C319.562 251.513 319.3 251.595 319.031 251.617C318.761 251.639 318.49 251.601 318.237 251.504C317.985 251.408 317.757 251.256 317.571 251.06C317.398 250.892 317.185 250.771 316.952 250.71C316.719 250.649 316.474 250.649 316.241 250.71C315.982 250.776 315.742 250.903 315.541 251.08C315.281 251.26 315.001 251.44 314.761 251.6Z" fill="white"/>
<path d="M321.94 285.59C322.1 285.32 322.29 285.08 322.46 284.82C322.645 284.531 322.909 284.301 323.22 284.16C323.552 284.018 323.917 283.975 324.272 284.038C324.627 284.1 324.957 284.264 325.22 284.51C325.387 284.685 325.596 284.814 325.827 284.886C326.058 284.958 326.304 284.969 326.54 284.92C326.802 284.857 327.045 284.734 327.25 284.56C327.5 284.39 327.74 284.21 328.02 284.05C327.86 284.33 327.68 284.57 327.51 284.82C327.315 285.107 327.04 285.333 326.72 285.47C326.382 285.6 326.013 285.63 325.658 285.555C325.304 285.481 324.978 285.305 324.72 285.05C324.548 284.885 324.336 284.767 324.105 284.705C323.875 284.644 323.632 284.642 323.4 284.7C323.143 284.775 322.904 284.904 322.7 285.08C322.46 285.25 322.22 285.44 321.94 285.59Z" fill="white"/>
<path d="M354.091 248.23C354.241 247.96 354.431 247.72 354.601 247.46C354.788 247.173 355.051 246.945 355.361 246.8C355.699 246.647 356.074 246.599 356.439 246.661C356.805 246.724 357.143 246.894 357.411 247.15C357.578 247.325 357.787 247.454 358.018 247.526C358.249 247.598 358.494 247.609 358.731 247.56C358.99 247.497 359.233 247.377 359.441 247.21C359.691 247.04 359.931 246.85 360.211 246.69C360.051 246.97 359.871 247.21 359.701 247.47C359.507 247.757 359.232 247.98 358.911 248.11C358.573 248.242 358.203 248.273 357.848 248.199C357.493 248.124 357.167 247.947 356.911 247.69C356.736 247.525 356.523 247.407 356.29 247.346C356.058 247.284 355.814 247.282 355.581 247.34C355.323 247.415 355.084 247.544 354.881 247.72C354.601 247.89 354.361 248.08 354.091 248.23Z" fill="white"/>
<path d="M376.211 261.769C376.361 261.499 376.551 261.259 376.721 260.999C376.91 260.715 377.173 260.487 377.481 260.339C377.812 260.198 378.178 260.155 378.533 260.217C378.888 260.279 379.217 260.443 379.481 260.689C379.648 260.864 379.857 260.993 380.088 261.064C380.319 261.136 380.564 261.148 380.801 261.099C381.061 261.039 381.304 260.919 381.511 260.749C381.771 260.579 382.011 260.389 382.281 260.229C382.131 260.509 381.941 260.749 381.771 261.009C381.58 261.299 381.304 261.522 380.981 261.649C380.643 261.782 380.273 261.813 379.918 261.739C379.563 261.664 379.237 261.487 378.981 261.229C378.806 261.065 378.593 260.946 378.36 260.885C378.128 260.824 377.884 260.822 377.651 260.879C377.393 260.954 377.154 261.084 376.951 261.259C376.721 261.429 376.481 261.619 376.211 261.769Z" fill="white"/>
<path d="M339.001 272.05C339.151 271.78 339.341 271.54 339.511 271.28C339.695 270.991 339.959 270.762 340.271 270.62C340.609 270.467 340.984 270.419 341.349 270.482C341.715 270.544 342.053 270.714 342.321 270.97C342.488 271.145 342.697 271.275 342.928 271.346C343.159 271.418 343.404 271.43 343.641 271.38C343.903 271.317 344.146 271.194 344.351 271.02C344.601 270.85 344.841 270.67 345.121 270.51C344.961 270.79 344.781 271.03 344.611 271.28C344.418 271.57 344.143 271.796 343.821 271.93C343.483 272.063 343.114 272.094 342.758 272.019C342.403 271.945 342.077 271.768 341.821 271.51C341.646 271.345 341.433 271.227 341.2 271.166C340.968 271.105 340.724 271.103 340.491 271.16C340.233 271.235 339.994 271.364 339.791 271.54C339.511 271.71 339.271 271.9 339.001 272.05Z" fill="white"/>
<path d="M387.001 285.589C387.161 285.319 387.341 285.079 387.511 284.819C387.698 284.532 387.961 284.304 388.271 284.159C388.609 284.006 388.984 283.958 389.349 284.021C389.715 284.083 390.053 284.253 390.321 284.509C390.488 284.683 390.697 284.812 390.928 284.884C391.159 284.956 391.404 284.968 391.641 284.919C391.901 284.858 392.144 284.739 392.351 284.569C392.611 284.389 392.851 284.209 393.121 284.049C392.971 284.329 392.781 284.569 392.611 284.829C392.418 285.113 392.147 285.335 391.831 285.469C391.493 285.601 391.124 285.631 390.769 285.556C390.413 285.482 390.088 285.305 389.831 285.049C389.658 284.885 389.446 284.767 389.215 284.706C388.985 284.645 388.743 284.643 388.511 284.699C388.249 284.771 388.006 284.901 387.801 285.079C387.501 285.249 387.261 285.439 387.001 285.589Z" fill="white"/>
<path d="M392.41 248.999C392.56 248.719 392.75 248.479 392.92 248.219C393.11 247.935 393.372 247.707 393.68 247.559C394.018 247.407 394.393 247.359 394.759 247.421C395.124 247.483 395.462 247.653 395.73 247.909C395.898 248.084 396.106 248.213 396.337 248.284C396.568 248.356 396.813 248.368 397.05 248.319C397.311 248.259 397.554 248.139 397.76 247.969C398.02 247.799 398.26 247.609 398.53 247.449C398.38 247.729 398.19 247.969 398.02 248.229C397.829 248.519 397.553 248.742 397.23 248.869C396.892 249.002 396.523 249.033 396.167 248.959C395.812 248.884 395.486 248.707 395.23 248.449C395.057 248.286 394.845 248.168 394.615 248.107C394.384 248.045 394.142 248.043 393.91 248.099C393.648 248.172 393.406 248.302 393.2 248.479C392.92 248.659 392.68 248.849 392.41 248.999Z" fill="white"/>
<path d="M304.751 276.74C304.911 276.46 305.091 276.22 305.261 275.96C305.45 275.675 305.713 275.447 306.021 275.3C306.359 275.147 306.734 275.099 307.099 275.161C307.465 275.224 307.803 275.394 308.071 275.65C308.238 275.824 308.447 275.953 308.678 276.025C308.909 276.096 309.154 276.108 309.391 276.06C309.651 275.999 309.894 275.879 310.101 275.71C310.361 275.54 310.601 275.35 310.871 275.19C310.721 275.47 310.531 275.71 310.361 275.97C310.171 276.256 309.899 276.479 309.581 276.61C309.243 276.741 308.874 276.772 308.519 276.697C308.163 276.622 307.838 276.446 307.581 276.19C307.408 276.025 307.196 275.908 306.965 275.848C306.734 275.789 306.492 275.789 306.261 275.85C305.998 275.914 305.754 276.041 305.551 276.22C305.261 276.39 305.001 276.58 304.751 276.74Z" fill="white"/>
<path d="M302.001 219.648C302.151 219.378 302.341 219.139 302.511 218.879C302.7 218.591 302.962 218.36 303.271 218.208C303.61 218.057 303.986 218.011 304.351 218.075C304.716 218.139 305.054 218.311 305.321 218.569C305.488 218.743 305.697 218.872 305.928 218.942C306.16 219.012 306.405 219.021 306.641 218.968C306.904 218.917 307.149 218.796 307.351 218.618C307.611 218.448 307.851 218.258 308.121 218.108C307.965 218.374 307.795 218.631 307.611 218.879C307.419 219.166 307.148 219.391 306.831 219.528C306.493 219.66 306.124 219.69 305.769 219.616C305.413 219.541 305.088 219.365 304.831 219.108C304.659 218.942 304.448 218.823 304.217 218.762C303.985 218.7 303.743 218.699 303.511 218.759C303.249 218.831 303.006 218.961 302.801 219.139C302.521 219.309 302.281 219.498 302.001 219.648Z" fill="white"/>
<path d="M334.631 143.478C334.261 145.348 325.821 157.658 317.341 157.548C314.581 157.498 314.141 142.418 314.141 142.418L313.851 141.318L309.851 125.838L327.781 113.468L330.381 111.828C330.381 111.828 331.191 116.138 332.161 121.508C332.161 121.758 332.251 122.008 332.291 122.278C332.331 122.548 332.421 122.858 332.461 123.148C332.621 123.948 332.771 124.768 332.911 125.588C333.021 126.208 333.121 126.808 333.211 127.468C333.301 128.128 333.401 128.768 333.511 129.468C334.202 134.107 334.577 138.788 334.631 143.478Z" fill="#DD6A57"/>
<path d="M332.161 121.508C330.728 125.941 328.349 130.008 325.187 133.429C322.025 136.85 318.157 139.542 313.851 141.318L309.851 125.838L327.781 113.468L330.381 111.828C330.381 111.828 331.191 116.138 332.161 121.508Z" fill="#263238"/>
<path d="M287.87 102.848C287.13 130.908 303.87 134.518 309.87 134.668C315.36 134.808 334.08 134.588 337.72 106.758C341.36 78.9284 328.54 69.7584 316 68.7584C303.46 67.7584 288.61 74.7885 287.87 102.848Z" fill="#DD6A57"/>
<path d="M292.131 94.3591C292.791 94.2491 293.371 94.0491 294.011 93.8791C294.694 93.7957 295.332 93.4941 295.831 93.0191C295.958 92.8388 296.022 92.6213 296.013 92.4006C296.004 92.1799 295.922 91.9684 295.781 91.7991C295.448 91.5086 295.043 91.312 294.609 91.2294C294.175 91.1468 293.727 91.1812 293.311 91.3291C292.425 91.4965 291.633 91.9887 291.091 92.7091C290.977 92.8808 290.915 93.0817 290.913 93.2876C290.911 93.4935 290.968 93.6957 291.078 93.8698C291.188 94.044 291.345 94.1829 291.532 94.2696C291.719 94.3564 291.927 94.3875 292.131 94.3591Z" fill="#263238"/>
<path d="M310.891 98.4596C310.245 98.3887 309.604 98.2818 308.971 98.1396C308.286 98.1209 307.625 97.8786 307.091 97.4496C306.947 97.2814 306.864 97.0705 306.853 96.8498C306.842 96.6291 306.904 96.411 307.031 96.2296C307.336 95.91 307.722 95.6776 308.147 95.5564C308.572 95.4351 309.022 95.4293 309.451 95.5396C310.349 95.6319 311.18 96.0563 311.781 96.7296C311.912 96.8894 311.993 97.0842 312.015 97.2898C312.037 97.4954 311.998 97.703 311.904 97.8868C311.809 98.0707 311.663 98.2229 311.483 98.3247C311.303 98.4264 311.097 98.4733 310.891 98.4596Z" fill="#263238"/>
<path d="M296.27 103.489C296.27 103.419 296.13 103.589 296.13 103.669C296.32 105.569 296.22 107.779 294.54 108.529C294.48 108.529 294.54 108.649 294.54 108.639C296.64 108.199 296.75 105.259 296.27 103.489Z" fill="#263238"/>
<path d="M294.43 101.609C291.35 101.609 291.52 107.749 294.38 107.779C297.24 107.809 297 101.639 294.43 101.609Z" fill="#263238"/>
<path d="M293.16 102.059C292.68 102.399 292.22 102.999 291.63 103.059C291.04 103.119 290.44 102.469 289.99 101.839C289.99 101.779 289.9 101.839 289.9 101.909C289.9 103.089 290.33 104.309 291.46 104.499C292.59 104.689 293.23 103.649 293.46 102.499C293.53 102.249 293.35 101.919 293.16 102.059Z" fill="#263238"/>
<path d="M308.821 119.819C308.351 120.249 307.871 120.819 307.171 120.889C306.473 120.843 305.792 120.652 305.171 120.329C305.157 120.322 305.142 120.32 305.127 120.323C305.112 120.326 305.098 120.334 305.088 120.345C305.078 120.356 305.072 120.371 305.071 120.386C305.069 120.401 305.073 120.416 305.081 120.429C305.342 120.816 305.703 121.125 306.126 121.322C306.548 121.519 307.017 121.598 307.481 121.549C307.876 121.465 308.237 121.264 308.515 120.971C308.794 120.678 308.977 120.308 309.041 119.909C309.001 119.799 308.891 119.759 308.821 119.819Z" fill="#263238"/>
<path d="M299.26 112.15C299.26 112.15 299.04 115.01 299.11 116.35C301.729 116.206 304.356 116.435 306.91 117.03C307.51 117.19 307.47 116.7 306.79 116.34C304.765 115.284 302.47 114.859 300.2 115.12C300.08 114.75 300.63 110.72 300.42 110.72C299.387 110.871 298.378 111.161 297.42 111.58C297.72 105.58 298.98 99.7397 299.19 93.7897C299.193 93.7461 299.18 93.7029 299.154 93.6682C299.127 93.6336 299.089 93.6097 299.046 93.6012C299.003 93.5926 298.959 93.5999 298.921 93.6217C298.883 93.6435 298.854 93.6783 298.84 93.7197C297.08 99.7897 296.58 106.65 296.11 112.81C296.05 113.57 298.74 112.41 299.26 112.15Z" fill="#263238"/>
<path d="M312.611 103.589C311.488 103.149 310.259 103.051 309.081 103.309C308.449 103.452 307.851 103.717 307.321 104.089C306.774 104.497 306.326 105.024 306.011 105.629L305.421 106.719L306.631 106.589C307.482 106.499 308.34 106.499 309.191 106.589C310.079 106.666 310.933 106.969 311.671 107.469C311.187 106.585 310.376 105.928 309.411 105.639C308.471 105.328 307.477 105.216 306.491 105.309L307.111 106.309C307.628 105.441 308.425 104.775 309.371 104.419C310.412 104.009 311.501 103.73 312.611 103.589Z" fill="#263238"/>
<path d="M309.14 108.559C308.235 108.346 307.364 108.01 306.55 107.559C306.36 107.439 305.63 106.889 305.67 106.729C305.774 106.264 305.935 105.813 306.15 105.389C305.814 105.766 305.559 106.209 305.4 106.689C305.456 106.953 305.569 107.202 305.732 107.418C305.894 107.634 306.102 107.812 306.34 107.939C307.2 108.395 308.168 108.61 309.14 108.559Z" fill="#263238"/>
<path d="M302.501 116.148C302.501 116.148 304.241 118.648 306.241 118.948C308.541 119.308 308.811 117.238 306.241 116.058C304.941 115.448 302.501 116.148 302.501 116.148Z" fill="#263238"/>
<path d="M306.231 118.998C305.359 118.817 304.558 118.39 303.921 117.768C304.401 117.058 305.501 116.268 307.971 117.598C308.331 118.438 307.691 119.178 306.231 118.998Z" fill="#FF99BA"/>
<path d="M337.55 107.429C332.93 108.009 331.39 98.3391 331.39 98.3391C331.39 98.3391 321.97 98.8191 318.2 85.4191C318.668 89.4674 320.309 93.2907 322.92 96.4191C322.92 96.4191 306.21 95.4191 298.54 81.8891C298.54 81.8891 301.68 88.8391 304.42 91.2291C304.42 91.2291 297.35 89.6291 293.68 84.1291C293.68 84.1291 291.16 92.2991 289.03 94.6291C289.03 94.6291 288.3 65.5191 315.39 67.2991C315.39 67.2991 332.31 67.5991 339.02 80.6591C345.73 93.7191 337.55 107.429 337.55 107.429Z" fill="#263238"/>
<path d="M333.231 108.789C333.231 108.789 338.821 99.6787 342.921 101.619C347.021 103.559 343.181 116.519 338.631 118.529C338.065 118.828 337.445 119.01 336.807 119.063C336.169 119.116 335.527 119.039 334.919 118.837C334.312 118.635 333.752 118.312 333.273 117.888C332.793 117.464 332.405 116.947 332.131 116.369L333.231 108.789Z" fill="#DD6A57"/>
<path d="M341.731 105.309C341.801 105.309 341.821 105.399 341.731 105.429C338.541 106.949 337.011 110.079 335.991 113.299C336.891 112.029 338.171 111.299 339.861 112.299C339.951 112.349 339.861 112.489 339.781 112.479C339.197 112.329 338.58 112.365 338.017 112.582C337.455 112.798 336.973 113.185 336.641 113.689C336.081 114.527 335.618 115.426 335.261 116.369C335.121 116.669 334.591 116.549 334.681 116.209C334.675 116.182 334.675 116.155 334.681 116.129C334.401 111.999 337.281 105.999 341.731 105.309Z" fill="#263238"/>
<path d="M336.001 117.07C336.015 117.329 336.106 117.578 336.262 117.785C336.418 117.992 336.631 118.148 336.876 118.234C337.121 118.32 337.386 118.331 337.637 118.266C337.888 118.201 338.114 118.063 338.287 117.869C338.459 117.676 338.57 117.435 338.606 117.178C338.642 116.921 338.601 116.66 338.488 116.426C338.374 116.193 338.195 115.998 337.971 115.867C337.747 115.736 337.49 115.674 337.231 115.69C337.059 115.699 336.891 115.742 336.736 115.816C336.581 115.89 336.442 115.995 336.328 116.123C336.213 116.251 336.125 116.401 336.069 116.564C336.013 116.726 335.99 116.898 336.001 117.07Z" fill="white"/>
<path d="M339.14 114.899C339.148 115.065 339.206 115.225 339.305 115.359C339.405 115.492 339.541 115.593 339.698 115.649C339.855 115.705 340.025 115.713 340.186 115.672C340.348 115.631 340.493 115.543 340.604 115.419C340.715 115.295 340.787 115.141 340.811 114.976C340.834 114.811 340.808 114.643 340.736 114.493C340.664 114.343 340.549 114.218 340.405 114.134C340.262 114.049 340.096 114.009 339.93 114.019C339.82 114.024 339.712 114.051 339.613 114.098C339.514 114.145 339.425 114.212 339.351 114.294C339.278 114.376 339.221 114.471 339.185 114.575C339.149 114.679 339.133 114.789 339.14 114.899Z" fill="white"/>
<path d="M248.141 169.473L233.618 172.848L244.065 217.81L258.588 214.436L248.141 169.473Z" fill="#EBEBEB"/>
<path d="M212.741 50.1291C200.607 52.9521 189.582 59.3091 181.061 68.3965C172.539 77.4839 166.903 88.8938 164.865 101.184C162.827 113.474 164.479 126.092 169.611 137.444C174.743 148.795 183.125 158.371 193.699 164.959C204.272 171.547 216.561 174.853 229.012 174.459C241.464 174.064 253.519 169.987 263.654 162.742C273.788 155.497 281.548 145.41 285.951 133.757C290.354 122.103 291.203 109.405 288.391 97.2691C286.522 89.2047 283.082 81.5877 278.268 74.8533C273.454 68.119 267.36 62.3994 260.335 58.0215C253.309 53.6436 245.49 50.6932 237.323 49.339C229.157 47.9847 220.803 48.2532 212.741 50.1291ZM238.261 159.999C228.674 162.229 218.641 161.566 209.431 158.093C200.221 154.62 192.248 148.494 186.52 140.489C180.792 132.484 177.567 122.961 177.253 113.123C176.938 103.285 179.549 93.5747 184.753 85.2205C189.958 76.8663 197.524 70.2433 206.493 66.1894C215.462 62.1354 225.432 60.8325 235.142 62.4456C244.852 64.0586 253.865 68.515 261.042 75.2512C268.219 81.9874 273.236 90.7008 275.461 100.289C278.441 113.14 276.197 126.648 269.222 137.845C262.246 149.042 251.11 157.01 238.261 159.999Z" fill="#A6A6A6"/>
<path d="M253.098 201.712L243.357 203.976C239.984 204.759 237.885 208.129 238.669 211.502L251.127 265.124C251.911 268.497 255.281 270.596 258.654 269.812L268.394 267.549C271.767 266.765 273.866 263.396 273.083 260.023L260.624 206.401C259.841 203.028 256.471 200.929 253.098 201.712Z" fill="#263238"/>
<g opacity="0.3">
<path d="M275.461 100.27C277.684 109.854 277.015 119.883 273.538 129.087C270.062 138.292 263.935 146.258 255.931 151.981C247.927 157.703 238.406 160.923 228.573 161.235C218.739 161.546 209.033 158.935 200.683 153.731C192.333 148.527 185.714 140.964 181.662 131.998C177.61 123.032 176.307 113.066 177.919 103.36C179.531 93.6543 183.984 84.6442 190.716 77.4691C197.449 70.2939 206.157 65.2761 215.741 63.05C222.106 61.5701 228.701 61.359 235.147 62.4289C241.594 63.4987 247.767 65.8285 253.313 69.2851C258.859 72.7416 263.67 77.2572 267.47 82.5737C271.27 87.8903 273.986 93.9036 275.461 100.27Z" fill="white"/>
<path d="M276.681 114.289C275.946 127.386 270.072 139.664 260.335 148.454C250.597 157.244 237.784 161.835 224.681 161.229L276.681 114.289Z" fill="#EBEBEB"/>
<path d="M253.791 69.5999L182.561 133.89C180.789 130.359 179.446 126.63 178.561 122.78C177.524 118.369 177.107 113.836 177.321 109.31L229.911 61.8398C238.404 62.3395 246.627 65.0115 253.791 69.5999Z" fill="#EBEBEB"/>
<path d="M274.091 95.4996L206.241 156.73C203.275 155.367 200.452 153.716 197.811 151.8L270.061 86.5996C271.702 89.4219 273.053 92.4039 274.091 95.4996Z" fill="#EBEBEB"/>
<path d="M259.261 73.6595L186.001 139.76C185.661 139.26 185.321 138.76 185.001 138.25L257.841 72.5195C258.341 72.8795 258.811 73.2495 259.261 73.6595Z" fill="#EBEBEB"/>
<path d="M213.32 63.6797L180.82 92.9997C181.37 91.6097 181.99 90.2497 182.67 88.9297L209.1 65.0697C210.47 64.5597 211.88 64.0897 213.32 63.6797Z" fill="#EBEBEB"/>
</g>
<path d="M191.681 120.128C191.676 120.062 191.676 119.995 191.681 119.928C191.501 118.928 191.811 120.878 191.681 120.228C191.551 119.578 191.481 118.688 191.421 117.918C191.191 115.203 191.191 112.473 191.421 109.758C191.421 109.368 191.491 108.988 191.521 108.608C191.521 108.488 191.411 109.508 191.521 108.698L191.611 107.998C191.731 107.098 191.881 106.198 192.061 105.308C192.44 103.346 192.951 101.412 193.591 99.5182C193.741 99.0682 193.911 98.6182 194.071 98.1682C194.281 97.5582 193.791 98.8382 194.121 98.0382L194.451 97.2482C194.881 96.2482 195.351 95.2482 195.851 94.2482C196.351 93.2482 197.001 92.1782 197.631 91.1882C197.931 90.7282 198.231 90.2782 198.541 89.8282C199.071 89.0582 198.291 90.1382 198.701 89.5982L199.291 88.8182C201.112 86.529 203.148 84.4194 205.371 82.5182C205.371 82.5182 205.831 82.1482 205.491 82.4282C205.151 82.7082 205.671 82.2782 205.731 82.2282L206.731 81.4382C207.401 80.9382 208.081 80.4382 208.781 79.9982C210.247 79.0182 211.762 78.1136 213.321 77.2882C213.738 77.0256 214.1 76.6832 214.386 76.2808C214.671 75.8783 214.874 75.4236 214.984 74.9426C215.093 74.4616 215.107 73.9637 215.024 73.4774C214.941 72.9911 214.764 72.5258 214.501 72.1082C214.238 71.6906 213.896 71.3288 213.493 71.0435C213.091 70.7582 212.636 70.555 212.155 70.4454C211.674 70.3358 211.176 70.3221 210.69 70.4049C210.204 70.4877 209.738 70.6656 209.321 70.9282C199.441 76.1982 191.321 84.5182 187.241 95.0082C184.479 102.063 183.301 109.638 183.791 117.198C183.891 118.877 184.105 120.548 184.431 122.198C184.716 123.15 185.366 123.95 186.239 124.424C187.112 124.899 188.137 125.008 189.091 124.728C190.029 124.419 190.813 123.764 191.283 122.896C191.754 122.028 191.874 121.012 191.621 120.058L191.681 120.128Z" fill="white"/>
<path d="M195.001 130.769C195.208 131.466 195.203 132.21 194.988 132.905C194.773 133.6 194.356 134.215 193.791 134.673C193.226 135.132 192.538 135.412 191.813 135.48C191.089 135.547 190.361 135.398 189.721 135.051C189.081 134.705 188.558 134.177 188.219 133.533C187.879 132.89 187.738 132.16 187.813 131.436C187.887 130.712 188.175 130.027 188.64 129.467C189.104 128.907 189.724 128.497 190.421 128.289C190.885 128.149 191.371 128.103 191.853 128.152C192.334 128.201 192.802 128.345 193.227 128.576C193.653 128.806 194.029 129.119 194.333 129.495C194.638 129.871 194.865 130.304 195.001 130.769Z" fill="white"/>
<path d="M354.13 162.299C363.13 194.839 367.45 227.509 362.47 244.359C359.29 255.099 351.62 262.359 346.74 264.759C335.33 270.399 297.48 262.399 272.82 257.439C266.76 256.219 281.05 207.389 287.14 209.979C296.14 213.789 323.69 218.929 324.45 219.179C326.08 219.739 329.45 184.429 331.83 163.729C335.12 134.889 348.94 143.509 354.13 162.299Z" fill="#DD6A57"/>
<path d="M225.431 200.679C222.751 205.049 226.231 209.049 226.231 209.049C223.946 210.192 222.135 212.099 221.111 214.439C219.501 218.639 225.381 223.009 225.381 223.009C223.259 224.686 221.694 226.966 220.891 229.549C219.751 233.729 225.061 238.979 225.061 238.979C223.964 241.597 223.847 244.522 224.731 247.219C227.381 254.329 238.731 256.659 245.931 258.219C253.131 259.779 275.011 257.419 279.231 257.399L289.581 211.269C289.581 211.269 259.271 195.119 250.581 194.499C243.191 193.999 228.441 195.779 225.431 200.679Z" fill="#DD6A57"/>
<path d="M226.711 208.378C234.711 207.068 242.571 208.168 250.521 208.818C250.558 208.818 250.594 208.833 250.62 208.859C250.646 208.886 250.661 208.921 250.661 208.958C250.661 208.996 250.646 209.031 250.62 209.057C250.594 209.084 250.558 209.098 250.521 209.098C242.611 208.358 234.661 209.188 226.751 208.768C226.705 208.764 226.662 208.744 226.629 208.711C226.597 208.679 226.576 208.636 226.571 208.59C226.567 208.544 226.578 208.498 226.603 208.459C226.629 208.421 226.667 208.392 226.711 208.378Z" fill="#263238"/>
<path d="M225.671 222.439C227.505 222.311 229.348 222.429 231.151 222.789C233.077 223.042 235.001 223.329 236.921 223.649C240.768 224.315 244.594 225.052 248.401 225.859C248.571 225.859 248.561 226.159 248.401 226.129C244.561 225.499 240.721 224.929 236.871 224.459C234.941 224.219 233.011 224.009 231.071 223.799C229.236 223.724 227.414 223.446 225.641 222.969C225.586 222.947 225.54 222.908 225.509 222.859C225.477 222.81 225.462 222.751 225.465 222.693C225.469 222.634 225.49 222.578 225.527 222.533C225.564 222.487 225.614 222.454 225.671 222.439Z" fill="#263238"/>
<path d="M225.221 238.999C226.781 238.729 228.601 239.289 230.141 239.579C231.891 239.909 233.631 240.219 235.381 240.529C238.881 241.149 242.381 241.759 245.901 242.259C246.071 242.259 246.051 242.559 245.901 242.529C242.321 242.049 238.741 241.609 235.171 241.099C233.421 240.849 231.661 240.579 229.911 240.309C228.421 240.079 226.541 239.959 225.211 239.179C225.194 239.17 225.181 239.157 225.172 239.14C225.163 239.124 225.158 239.105 225.159 239.086C225.16 239.067 225.167 239.049 225.178 239.034C225.189 239.019 225.204 239.007 225.221 238.999Z" fill="#263238"/>
<path d="M235.31 195.899C231.68 196.369 227.52 197.169 225.17 200.259C224.084 201.57 223.549 203.251 223.68 204.949C223.887 206.534 224.688 207.981 225.92 208.999C224.469 209.466 223.18 210.334 222.2 211.501C221.22 212.669 220.589 214.089 220.38 215.599C220.319 216.355 220.415 217.115 220.661 217.833C220.907 218.55 221.298 219.209 221.81 219.769C222.31 220.359 222.88 220.879 223.43 221.419C223.98 221.959 224.59 222.419 225.16 222.889C224.544 223.37 223.965 223.899 223.43 224.469C222.83 225.045 222.291 225.682 221.82 226.369C220.847 227.729 220.297 229.347 220.24 231.019C220.323 232.68 220.902 234.279 221.9 235.609C222.712 236.984 223.857 238.133 225.23 238.949C225.247 238.957 225.267 238.959 225.285 238.954C225.304 238.949 225.32 238.938 225.331 238.922C225.342 238.907 225.347 238.888 225.345 238.869C225.343 238.85 225.334 238.832 225.32 238.819C224.241 237.834 223.326 236.683 222.61 235.409C221.745 234.05 221.271 232.479 221.24 230.869C221.373 229.342 221.889 227.873 222.74 226.599C223.164 225.908 223.624 225.24 224.12 224.599C224.614 224.075 225.075 223.52 225.5 222.939C225.5 222.939 224.31 221.679 223.89 221.139C223.47 220.599 223.06 220.019 222.68 219.429C221.875 218.309 221.518 216.928 221.68 215.559C221.916 214.28 222.497 213.091 223.36 212.119C224.2 211.119 225.29 210.329 226.17 209.349C226.202 209.297 226.222 209.239 226.231 209.179C226.24 209.119 226.236 209.058 226.22 208.999C224.22 205.879 224.47 202.919 226.61 200.609C227.7 199.489 228.976 198.565 230.38 197.879C231.996 197.144 233.668 196.539 235.38 196.069C235.45 196.059 235.42 195.889 235.31 195.899Z" fill="#263238"/>
<path d="M301.61 263.089C299.48 262.429 297.23 262.089 295.05 261.609C292.87 261.129 290.67 260.679 288.47 260.239C286.27 259.799 283.98 259.359 281.74 258.939C279.5 258.519 277.41 258.049 275.23 257.789C273.126 257.586 271.004 257.633 268.91 257.929C266.797 258.169 264.677 258.339 262.55 258.439C258.266 258.646 253.972 258.553 249.7 258.159C244.867 257.711 240.081 256.858 235.39 255.609C235.29 255.609 235.26 255.729 235.39 255.759C243.522 258.474 252.047 259.826 260.62 259.759C262.74 259.759 264.87 259.629 266.98 259.419C269.088 259.12 271.212 258.94 273.34 258.879C275.591 259.028 277.825 259.363 280.02 259.879C282.23 260.289 284.43 260.709 286.64 261.099C289.14 261.539 291.64 261.989 294.15 262.379C296.66 262.769 299.15 263.329 301.61 263.509C301.79 263.469 301.8 263.139 301.61 263.089Z" fill="#263238"/>
<path d="M332.671 221.199C329.471 220.109 326.091 219.429 322.801 218.639C319.511 217.849 316.181 217.089 312.871 216.339C306.551 214.909 300.151 213.699 293.871 211.949C292.221 211.489 290.591 210.949 288.981 210.409C288.171 210.119 287.381 209.799 286.591 209.409C285.801 209.019 284.891 208.779 284.111 208.409C284.021 208.349 283.951 208.489 284.041 208.549C284.671 208.939 285.251 209.409 285.901 209.789C286.551 210.169 287.341 210.549 288.081 210.889C289.434 211.507 290.819 212.051 292.231 212.519C295.171 213.519 298.231 214.209 301.231 214.909C307.831 216.419 314.441 217.909 321.061 219.339C322.921 219.739 324.791 220.139 326.661 220.509C328.531 220.879 330.571 221.339 332.551 221.559C332.598 221.572 332.648 221.567 332.691 221.544C332.734 221.521 332.766 221.482 332.782 221.436C332.797 221.39 332.794 221.34 332.774 221.296C332.753 221.251 332.716 221.217 332.671 221.199Z" fill="#263238"/>
<path d="M322.261 209.099L368.001 215.319C368.001 215.319 359.641 167.769 350.751 152.019C341.981 136.479 332.301 146.749 328.611 165.549C324.471 186.389 322.261 209.099 322.261 209.099Z" fill="#37474F"/>
<path d="M364.571 208.429C363.291 208.129 361.981 207.939 360.701 207.659C359.421 207.379 358.191 207.189 356.931 206.989C354.361 206.589 351.781 206.229 349.201 205.879C344.121 205.179 339.051 204.409 333.951 203.879C331.051 203.559 328.161 203.129 325.261 202.879C325.239 202.879 325.219 202.887 325.204 202.902C325.189 202.917 325.181 202.938 325.181 202.959C325.181 202.98 325.189 203 325.204 203.015C325.219 203.03 325.239 203.039 325.261 203.039C330.311 204.219 335.461 205.099 340.581 205.929C345.701 206.759 350.741 207.539 355.841 208.099C357.271 208.249 358.701 208.439 360.141 208.509C361.581 208.579 363.091 208.709 364.561 208.739C364.602 208.74 364.642 208.725 364.672 208.697C364.702 208.669 364.719 208.63 364.721 208.589C364.722 208.548 364.707 208.508 364.679 208.478C364.651 208.448 364.612 208.43 364.571 208.429Z" fill="#263238"/>
<path d="M389.631 35.9111C389.043 41.5366 386.905 46.8883 383.453 51.369C380.001 55.8496 375.372 59.2829 370.082 61.2857C364.793 63.2885 359.051 63.782 353.497 62.7111C347.943 61.6402 342.796 59.0471 338.631 55.2211L323.351 57.4711L331.001 44.2611C329.246 39.9616 328.496 35.3186 328.805 30.6853C329.115 26.0519 330.478 21.5503 332.789 17.5227C335.101 13.4951 338.3 10.0476 342.144 7.44246C345.988 4.83728 350.375 3.143 354.973 2.48848C359.57 1.83396 364.256 2.23644 368.675 3.6653C373.093 5.09416 377.127 7.51177 380.471 10.7343C383.814 13.9568 386.379 17.8993 387.97 22.262C389.56 26.6248 390.135 31.2928 389.651 35.9111H389.631Z" fill="white"/>
<path d="M389.631 35.9103C389.045 41.54 386.913 46.8978 383.471 51.3903C381.78 53.6515 379.757 55.6441 377.471 57.3003C372.927 60.7106 367.534 62.8069 361.881 63.3603C360.471 63.492 359.054 63.5188 357.641 63.4403C356.224 63.4092 354.813 63.2621 353.421 63.0003C347.79 61.969 342.557 59.3892 338.311 55.5503L338.671 55.6603L323.421 58.0003L322.311 58.1703L322.871 57.1703L330.471 43.9403V44.4603C328.25 38.996 327.639 33.0104 328.711 27.2102C329.782 21.4101 332.49 16.0375 336.516 11.7267C340.542 7.41601 345.717 4.34711 351.431 2.88236C357.144 1.4176 363.157 1.61815 368.761 3.46031C373.173 4.95956 377.194 7.4264 380.531 10.6803C383.86 13.9213 386.409 17.8767 387.986 22.2475C389.562 26.6183 390.125 31.2902 389.631 35.9103ZM389.631 35.9103C390.112 31.3157 389.534 26.6718 387.939 22.3359C386.344 18.0001 383.776 14.0878 380.432 10.9003C377.088 7.7128 373.058 5.33495 368.65 3.94976C364.243 2.56457 359.577 2.20897 355.011 2.91031C350.478 3.59294 346.161 5.30321 342.391 7.91031C338.656 10.54 335.54 13.9526 333.261 17.9103C331.008 21.8688 329.682 26.2859 329.381 30.8303C329.103 35.3682 329.838 39.9109 331.531 44.1303L331.641 44.4103L331.501 44.6603L323.811 57.8403L323.261 57.0303L338.551 54.8903H338.761L338.911 55.0303C342.995 58.8478 348.06 61.4548 353.541 62.5603C354.905 62.8402 356.289 63.0107 357.681 63.0703C359.072 63.1653 360.469 63.1653 361.861 63.0703C364.648 62.853 367.391 62.2471 370.011 61.2703C372.652 60.3093 375.136 58.9612 377.381 57.2703C378.51 56.4429 379.585 55.5444 380.601 54.5803C381.59 53.5876 382.519 52.5357 383.381 51.4303C386.862 46.9359 389.025 41.5628 389.631 35.9103Z" fill="#263238"/>
<path d="M344.33 47.0012C344.311 46.5956 344.375 46.1904 344.517 45.8101C344.66 45.4298 344.878 45.0823 345.158 44.7888C345.439 44.4952 345.776 44.2616 346.149 44.1022C346.522 43.9427 346.924 43.8607 347.33 43.8612C348.163 43.8612 348.962 44.192 349.551 44.7809C350.14 45.3697 350.47 46.1684 350.47 47.0012C350.47 47.834 350.14 48.6326 349.551 49.2215C348.962 49.8104 348.163 50.1412 347.33 50.1412C346.924 50.1416 346.522 50.0596 346.149 49.9002C345.776 49.7407 345.439 49.5072 345.158 49.2136C344.878 48.92 344.66 48.5726 344.517 48.1923C344.375 47.812 344.311 47.4068 344.33 47.0012ZM345.6 39.7612L344.89 15.4512H349.75L349 39.7312L345.6 39.7612Z" fill="#23C7A8"/>
<path d="M356 47.0012C355.981 46.5956 356.045 46.1904 356.187 45.8101C356.329 45.4298 356.547 45.0823 356.828 44.7888C357.108 44.4952 357.446 44.2616 357.819 44.1022C358.192 43.9427 358.594 43.8607 359 43.8612C359.833 43.8612 360.632 44.192 361.221 44.7809C361.81 45.3697 362.14 46.1684 362.14 47.0012C362.14 47.834 361.81 48.6326 361.221 49.2215C360.632 49.8104 359.833 50.1412 359 50.1412C358.594 50.1416 358.192 50.0596 357.819 49.9002C357.446 49.7407 357.108 49.5072 356.828 49.2136C356.547 48.92 356.329 48.5726 356.187 48.1923C356.045 47.812 355.981 47.4068 356 47.0012ZM357.27 39.7612L356.56 15.4512H361.42L360.71 39.7612H357.27Z" fill="#23C7A8"/>
<path d="M367.63 47.0012C367.611 46.5956 367.675 46.1904 367.817 45.8101C367.959 45.4298 368.177 45.0823 368.458 44.7888C368.738 44.4952 369.075 44.2616 369.449 44.1022C369.822 43.9427 370.224 43.8607 370.63 43.8612C371.463 43.8612 372.262 44.192 372.851 44.7809C373.439 45.3697 373.77 46.1684 373.77 47.0012C373.77 47.834 373.439 48.6326 372.851 49.2215C372.262 49.8104 371.463 50.1412 370.63 50.1412C370.224 50.1416 369.822 50.0596 369.449 49.9002C369.075 49.7407 368.738 49.5072 368.458 49.2136C368.177 48.92 367.959 48.5726 367.817 48.1923C367.675 47.812 367.611 47.4068 367.63 47.0012ZM368.9 39.7612L368.19 15.4512H373.05L372.34 39.7612H368.9Z" fill="#23C7A8"/>
</svg>
